<svg xmlns="http://www.w3.org/2000/svg" xmlns:xlink="http://www.w3.org/1999/xlink" width="500" zoomAndPan="magnify" viewBox="0 0 375 374.999991" height="500" preserveAspectRatio="xMidYMid meet" version="1.0"><defs><g/><clipPath id="50fd85f48c"><path d="M 125.53125 64.460938 L 249.28125 64.460938 L 249.28125 214.460938 L 125.53125 214.460938 Z M 125.53125 64.460938 " clip-rule="nonzero"/></clipPath></defs><rect x="-37.5" width="450" fill="#ffffff" y="-37.499999" height="449.999989" fill-opacity="1"/><rect x="-37.5" width="450" fill="#ffffff" y="-37.499999" height="449.999989" fill-opacity="1"/><g clip-path="url(#50fd85f48c)"><path fill="#000000" d="M 187.390625 64.46875 C 153.21875 64.46875 125.523438 92.210938 125.523438 126.433594 C 125.523438 173.492188 187.390625 214.449219 187.390625 214.449219 C 187.390625 214.449219 249.261719 173.492188 249.261719 126.433594 C 249.261719 92.210938 221.5625 64.46875 187.390625 64.46875 Z M 187.390625 174.59375 C 160.835938 174.59375 139.308594 153.035156 139.308594 126.433594 C 139.308594 99.835938 160.835938 78.273438 187.390625 78.273438 C 213.949219 78.273438 235.480469 99.835938 235.480469 126.433594 C 235.480469 153.035156 213.949219 174.59375 187.390625 174.59375 Z M 187.390625 174.59375 " fill-opacity="1" fill-rule="nonzero"/></g><path fill="#000000" d="M 159.835938 118.863281 L 188.539062 130.84375 L 217.242188 119.34375 L 188.539062 107.847656 Z M 159.835938 118.863281 " fill-opacity="1" fill-rule="nonzero"/><path fill="#000000" d="M 171.316406 126.765625 L 171.316406 139.46875 C 171.316406 142.644531 179.027344 145.214844 188.539062 145.214844 C 198.054688 145.214844 205.765625 142.644531 205.765625 139.46875 L 205.765625 127.039062 L 188.519531 133.949219 Z M 171.316406 126.765625 " fill-opacity="1" fill-rule="nonzero"/><g fill="#000000" fill-opacity="1"><g transform="translate(69.426116, 272.927473)"><g><path d="M 2.953125 -28 L 8.4375 -28 L 8.4375 0 L 2.953125 0 Z M 2.953125 -28 "/></g></g></g><g fill="#000000" fill-opacity="1"><g transform="translate(80.82498, 272.927473)"><g><path d="M 14.515625 0 L 14.515625 -11.359375 C 14.515625 -12.984375 14.28125 -14.15625 13.8125 -14.875 C 13.351562 -15.59375 12.5625 -15.953125 11.4375 -15.953125 C 10.445312 -15.953125 9.613281 -15.664062 8.9375 -15.09375 C 8.257812 -14.519531 7.773438 -13.804688 7.484375 -12.953125 L 7.484375 0 L 2.28125 0 L 2.28125 -20 L 6.40625 -20 L 7 -17.359375 L 7.15625 -17.359375 C 7.769531 -18.210938 8.582031 -18.957031 9.59375 -19.59375 C 10.613281 -20.238281 11.921875 -20.5625 13.515625 -20.5625 C 14.503906 -20.5625 15.382812 -20.425781 16.15625 -20.15625 C 16.925781 -19.894531 17.578125 -19.457031 18.109375 -18.84375 C 18.648438 -18.226562 19.050781 -17.394531 19.3125 -16.34375 C 19.582031 -15.289062 19.71875 -13.988281 19.71875 -12.4375 L 19.71875 0 Z M 14.515625 0 "/></g></g></g><g fill="#000000" fill-opacity="1"><g transform="translate(102.622815, 272.927473)"><g><path d="M 0.203125 -20 L 2.953125 -20 L 2.953125 -23.765625 L 8.15625 -25.234375 L 8.15625 -20 L 13.046875 -20 L 13.046875 -15.59375 L 8.15625 -15.59375 L 8.15625 -7.921875 C 8.15625 -6.535156 8.296875 -5.539062 8.578125 -4.9375 C 8.859375 -4.34375 9.382812 -4.046875 10.15625 -4.046875 C 10.6875 -4.046875 11.144531 -4.097656 11.53125 -4.203125 C 11.925781 -4.304688 12.363281 -4.46875 12.84375 -4.6875 L 13.765625 -0.6875 C 13.046875 -0.332031 12.203125 -0.0351562 11.234375 0.203125 C 10.273438 0.441406 9.300781 0.5625 8.3125 0.5625 C 6.476562 0.5625 5.125 0.0859375 4.25 -0.859375 C 3.382812 -1.804688 2.953125 -3.359375 2.953125 -5.515625 L 2.953125 -15.59375 L 0.203125 -15.59375 Z M 0.203125 -20 "/></g></g></g><g fill="#000000" fill-opacity="1"><g transform="translate(116.581424, 272.927473)"><g><path d="M 18.28125 -1.71875 C 17.476562 -1.082031 16.390625 -0.539062 15.015625 -0.09375 C 13.640625 0.34375 12.179688 0.5625 10.640625 0.5625 C 7.410156 0.5625 5.046875 -0.375 3.546875 -2.25 C 2.054688 -4.132812 1.3125 -6.71875 1.3125 -10 C 1.3125 -13.519531 2.148438 -16.160156 3.828125 -17.921875 C 5.515625 -19.679688 7.878906 -20.5625 10.921875 -20.5625 C 11.929688 -20.5625 12.914062 -20.425781 13.875 -20.15625 C 14.832031 -19.894531 15.6875 -19.457031 16.4375 -18.84375 C 17.1875 -18.226562 17.785156 -17.398438 18.234375 -16.359375 C 18.691406 -15.316406 18.921875 -14.023438 18.921875 -12.484375 C 18.921875 -11.921875 18.882812 -11.316406 18.8125 -10.671875 C 18.75 -10.035156 18.648438 -9.375 18.515625 -8.6875 L 6.515625 -8.6875 C 6.597656 -7 7.03125 -5.726562 7.8125 -4.875 C 8.601562 -4.019531 9.878906 -3.59375 11.640625 -3.59375 C 12.734375 -3.59375 13.710938 -3.757812 14.578125 -4.09375 C 15.441406 -4.425781 16.101562 -4.769531 16.5625 -5.125 Z M 10.84375 -16.40625 C 9.476562 -16.40625 8.46875 -15.992188 7.8125 -15.171875 C 7.164062 -14.359375 6.773438 -13.273438 6.640625 -11.921875 L 14.078125 -11.921875 C 14.179688 -13.359375 13.957031 -14.460938 13.40625 -15.234375 C 12.863281 -16.015625 12.007812 -16.40625 10.84375 -16.40625 Z M 10.84375 -16.40625 "/></g></g></g><g fill="#000000" fill-opacity="1"><g transform="translate(136.899401, 272.927473)"><g><path d="M 7.640625 -6.71875 C 7.640625 -5.78125 7.757812 -5.097656 8 -4.671875 C 8.238281 -4.253906 8.625 -4.046875 9.15625 -4.046875 C 9.476562 -4.046875 9.789062 -4.070312 10.09375 -4.125 C 10.40625 -4.175781 10.785156 -4.296875 11.234375 -4.484375 L 11.796875 -0.40625 C 11.367188 -0.1875 10.710938 0.0234375 9.828125 0.234375 C 8.953125 0.453125 8.050781 0.5625 7.125 0.5625 C 5.601562 0.5625 4.441406 0.207031 3.640625 -0.5 C 2.835938 -1.207031 2.4375 -2.375 2.4375 -4 L 2.4375 -28 L 7.640625 -28 Z M 7.640625 -6.71875 "/></g></g></g><g fill="#000000" fill-opacity="1"><g transform="translate(148.658227, 272.927473)"><g><path d="M 7.640625 -6.71875 C 7.640625 -5.78125 7.757812 -5.097656 8 -4.671875 C 8.238281 -4.253906 8.625 -4.046875 9.15625 -4.046875 C 9.476562 -4.046875 9.789062 -4.070312 10.09375 -4.125 C 10.40625 -4.175781 10.785156 -4.296875 11.234375 -4.484375 L 11.796875 -0.40625 C 11.367188 -0.1875 10.710938 0.0234375 9.828125 0.234375 C 8.953125 0.453125 8.050781 0.5625 7.125 0.5625 C 5.601562 0.5625 4.441406 0.207031 3.640625 -0.5 C 2.835938 -1.207031 2.4375 -2.375 2.4375 -4 L 2.4375 -28 L 7.640625 -28 Z M 7.640625 -6.71875 "/></g></g></g><g fill="#000000" fill-opacity="1"><g transform="translate(160.417054, 272.927473)"><g><path d="M 2.71875 -20 L 7.921875 -20 L 7.921875 0 L 2.71875 0 Z M 1.96875 -25.640625 C 1.96875 -26.410156 2.253906 -27.066406 2.828125 -27.609375 C 3.398438 -28.160156 4.191406 -28.4375 5.203125 -28.4375 C 6.210938 -28.4375 7.03125 -28.160156 7.65625 -27.609375 C 8.289062 -27.066406 8.609375 -26.410156 8.609375 -25.640625 C 8.609375 -24.867188 8.289062 -24.222656 7.65625 -23.703125 C 7.03125 -23.179688 6.210938 -22.921875 5.203125 -22.921875 C 4.191406 -22.921875 3.398438 -23.179688 2.828125 -23.703125 C 2.253906 -24.222656 1.96875 -24.867188 1.96875 -25.640625 Z M 1.96875 -25.640625 "/></g></g></g><g fill="#000000" fill-opacity="1"><g transform="translate(171.175987, 272.927473)"><g><path d="M 21.359375 -1.15625 C 20.503906 -0.539062 19.414062 -0.101562 18.09375 0.15625 C 16.78125 0.425781 15.429688 0.5625 14.046875 0.5625 C 12.359375 0.5625 10.757812 0.300781 9.25 -0.21875 C 7.75 -0.738281 6.425781 -1.578125 5.28125 -2.734375 C 4.132812 -3.898438 3.21875 -5.410156 2.53125 -7.265625 C 1.851562 -9.117188 1.515625 -11.363281 1.515625 -14 C 1.515625 -16.75 1.894531 -19.050781 2.65625 -20.90625 C 3.414062 -22.757812 4.398438 -24.25 5.609375 -25.375 C 6.828125 -26.507812 8.179688 -27.320312 9.671875 -27.8125 C 11.171875 -28.3125 12.664062 -28.5625 14.15625 -28.5625 C 15.757812 -28.5625 17.113281 -28.453125 18.21875 -28.234375 C 19.320312 -28.023438 20.234375 -27.773438 20.953125 -27.484375 L 19.875 -22.84375 C 19.257812 -23.132812 18.53125 -23.347656 17.6875 -23.484375 C 16.851562 -23.617188 15.835938 -23.6875 14.640625 -23.6875 C 12.421875 -23.6875 10.640625 -22.894531 9.296875 -21.3125 C 7.953125 -19.738281 7.28125 -17.300781 7.28125 -14 C 7.28125 -12.5625 7.4375 -11.25 7.75 -10.0625 C 8.070312 -8.875 8.5625 -7.859375 9.21875 -7.015625 C 9.875 -6.179688 10.6875 -5.53125 11.65625 -5.0625 C 12.632812 -4.59375 13.765625 -4.359375 15.046875 -4.359375 C 16.242188 -4.359375 17.253906 -4.476562 18.078125 -4.71875 C 18.898438 -4.957031 19.617188 -5.265625 20.234375 -5.640625 Z M 21.359375 -1.15625 "/></g></g></g><g fill="#000000" fill-opacity="1"><g transform="translate(193.53377, 272.927473)"><g><path d="M 2.15625 -18.84375 C 3.226562 -19.320312 4.492188 -19.703125 5.953125 -19.984375 C 7.421875 -20.265625 8.957031 -20.40625 10.5625 -20.40625 C 11.945312 -20.40625 13.101562 -20.238281 14.03125 -19.90625 C 14.96875 -19.570312 15.707031 -19.097656 16.25 -18.484375 C 16.800781 -17.867188 17.191406 -17.132812 17.421875 -16.28125 C 17.648438 -15.425781 17.765625 -14.46875 17.765625 -13.40625 C 17.765625 -12.226562 17.722656 -11.046875 17.640625 -9.859375 C 17.554688 -8.671875 17.507812 -7.503906 17.5 -6.359375 C 17.488281 -5.210938 17.519531 -4.097656 17.59375 -3.015625 C 17.675781 -1.941406 17.878906 -0.921875 18.203125 0.046875 L 13.953125 0.046875 L 13.125 -2.71875 L 12.921875 -2.71875 C 12.390625 -1.894531 11.648438 -1.179688 10.703125 -0.578125 C 9.753906 0.015625 8.535156 0.3125 7.046875 0.3125 C 6.109375 0.3125 5.265625 0.175781 4.515625 -0.09375 C 3.773438 -0.375 3.132812 -0.773438 2.59375 -1.296875 C 2.0625 -1.816406 1.648438 -2.429688 1.359375 -3.140625 C 1.066406 -3.847656 0.921875 -4.640625 0.921875 -5.515625 C 0.921875 -6.742188 1.191406 -7.773438 1.734375 -8.609375 C 2.285156 -9.453125 3.070312 -10.132812 4.09375 -10.65625 C 5.125 -11.175781 6.351562 -11.535156 7.78125 -11.734375 C 9.207031 -11.941406 10.800781 -12.003906 12.5625 -11.921875 C 12.75 -13.410156 12.640625 -14.484375 12.234375 -15.140625 C 11.835938 -15.796875 10.945312 -16.125 9.5625 -16.125 C 8.519531 -16.125 7.414062 -16.015625 6.25 -15.796875 C 5.09375 -15.585938 4.144531 -15.304688 3.40625 -14.953125 Z M 8.765625 -3.953125 C 9.796875 -3.953125 10.617188 -4.1875 11.234375 -4.65625 C 11.847656 -5.125 12.300781 -5.625 12.59375 -6.15625 L 12.59375 -8.765625 C 11.769531 -8.835938 10.976562 -8.847656 10.21875 -8.796875 C 9.457031 -8.742188 8.78125 -8.625 8.1875 -8.4375 C 7.601562 -8.25 7.140625 -7.984375 6.796875 -7.640625 C 6.453125 -7.296875 6.28125 -6.851562 6.28125 -6.3125 C 6.28125 -5.570312 6.5 -4.992188 6.9375 -4.578125 C 7.375 -4.160156 7.984375 -3.953125 8.765625 -3.953125 Z M 8.765625 -3.953125 "/></g></g></g><g fill="#000000" fill-opacity="1"><g transform="translate(213.371804, 272.927473)"><g><path d="M 13.640625 0 L 13.640625 -10.875 C 13.640625 -12.71875 13.460938 -14.023438 13.109375 -14.796875 C 12.765625 -15.566406 12.046875 -15.953125 10.953125 -15.953125 C 10.046875 -15.953125 9.3125 -15.707031 8.75 -15.21875 C 8.195312 -14.726562 7.773438 -14.09375 7.484375 -13.3125 L 7.484375 0 L 2.28125 0 L 2.28125 -20 L 6.3125 -20 L 6.921875 -17.359375 L 7.078125 -17.359375 C 7.691406 -18.210938 8.472656 -18.957031 9.421875 -19.59375 C 10.367188 -20.238281 11.585938 -20.5625 13.078125 -20.5625 C 14.359375 -20.5625 15.40625 -20.300781 16.21875 -19.78125 C 17.03125 -19.257812 17.664062 -18.382812 18.125 -17.15625 C 18.738281 -18.195312 19.523438 -19.023438 20.484375 -19.640625 C 21.441406 -20.253906 22.597656 -20.5625 23.953125 -20.5625 C 25.078125 -20.5625 26.03125 -20.425781 26.8125 -20.15625 C 27.601562 -19.894531 28.242188 -19.4375 28.734375 -18.78125 C 29.234375 -18.125 29.601562 -17.25 29.84375 -16.15625 C 30.082031 -15.0625 30.203125 -13.675781 30.203125 -12 L 30.203125 0 L 25 0 L 25 -11.234375 C 25 -12.804688 24.832031 -13.984375 24.5 -14.765625 C 24.164062 -15.554688 23.425781 -15.953125 22.28125 -15.953125 C 21.34375 -15.953125 20.597656 -15.695312 20.046875 -15.1875 C 19.503906 -14.6875 19.101562 -14 18.84375 -13.125 L 18.84375 0 Z M 13.640625 0 "/></g></g></g><g fill="#000000" fill-opacity="1"><g transform="translate(245.56861, 272.927473)"><g><path d="M 2.28125 -20 L 6.078125 -20 L 6.6875 -17.59375 L 6.84375 -17.59375 C 7.53125 -18.613281 8.347656 -19.363281 9.296875 -19.84375 C 10.242188 -20.320312 11.398438 -20.5625 12.765625 -20.5625 C 15.265625 -20.5625 17.140625 -19.765625 18.390625 -18.171875 C 19.648438 -16.585938 20.28125 -14.035156 20.28125 -10.515625 C 20.28125 -8.804688 20.078125 -7.265625 19.671875 -5.890625 C 19.273438 -4.523438 18.679688 -3.359375 17.890625 -2.390625 C 17.109375 -1.429688 16.148438 -0.695312 15.015625 -0.1875 C 13.878906 0.3125 12.582031 0.5625 11.125 0.5625 C 10.289062 0.5625 9.609375 0.5 9.078125 0.375 C 8.546875 0.257812 8.015625 0.0664062 7.484375 -0.203125 L 7.484375 8 L 2.28125 8 Z M 11.203125 -16.15625 C 10.191406 -16.15625 9.394531 -15.898438 8.8125 -15.390625 C 8.238281 -14.890625 7.796875 -14.132812 7.484375 -13.125 L 7.484375 -4.796875 C 7.859375 -4.503906 8.265625 -4.269531 8.703125 -4.09375 C 9.140625 -3.925781 9.71875 -3.84375 10.4375 -3.84375 C 11.9375 -3.84375 13.054688 -4.367188 13.796875 -5.421875 C 14.546875 -6.472656 14.921875 -8.210938 14.921875 -10.640625 C 14.921875 -12.398438 14.625 -13.757812 14.03125 -14.71875 C 13.445312 -15.675781 12.503906 -16.15625 11.203125 -16.15625 Z M 11.203125 -16.15625 "/></g></g></g><g fill="#000000" fill-opacity="1"><g transform="translate(267.166459, 272.927473)"><g><path d="M 7.28125 -20 L 7.28125 -8.640625 C 7.28125 -7.015625 7.472656 -5.84375 7.859375 -5.125 C 8.242188 -4.40625 9 -4.046875 10.125 -4.046875 C 11.101562 -4.046875 11.921875 -4.335938 12.578125 -4.921875 C 13.234375 -5.503906 13.722656 -6.222656 14.046875 -7.078125 L 14.046875 -20 L 19.234375 -20 L 19.234375 -6.078125 C 19.234375 -4.984375 19.285156 -3.910156 19.390625 -2.859375 C 19.503906 -1.804688 19.664062 -0.851562 19.875 0 L 15.953125 0 L 15.046875 -2.953125 L 14.875 -2.953125 C 14.257812 -1.941406 13.40625 -1.101562 12.3125 -0.4375 C 11.226562 0.226562 9.9375 0.5625 8.4375 0.5625 C 7.425781 0.5625 6.519531 0.425781 5.71875 0.15625 C 4.914062 -0.101562 4.25 -0.539062 3.71875 -1.15625 C 3.1875 -1.769531 2.78125 -2.597656 2.5 -3.640625 C 2.21875 -4.679688 2.078125 -5.988281 2.078125 -7.5625 L 2.078125 -20 Z M 7.28125 -20 "/></g></g></g><g fill="#000000" fill-opacity="1"><g transform="translate(288.684326, 272.927473)"><g><path d="M 10.5625 -5.515625 C 10.5625 -6.046875 10.332031 -6.472656 9.875 -6.796875 C 9.425781 -7.117188 8.867188 -7.410156 8.203125 -7.671875 C 7.535156 -7.941406 6.800781 -8.21875 6 -8.5 C 5.195312 -8.78125 4.460938 -9.164062 3.796875 -9.65625 C 3.128906 -10.15625 2.566406 -10.785156 2.109375 -11.546875 C 1.660156 -12.304688 1.4375 -13.285156 1.4375 -14.484375 C 1.4375 -16.453125 2.019531 -17.957031 3.1875 -19 C 4.363281 -20.039062 6.0625 -20.5625 8.28125 -20.5625 C 9.800781 -20.5625 11.171875 -20.398438 12.390625 -20.078125 C 13.617188 -19.753906 14.582031 -19.394531 15.28125 -19 L 14.125 -15.234375 C 13.507812 -15.472656 12.734375 -15.726562 11.796875 -16 C 10.867188 -16.269531 9.921875 -16.40625 8.953125 -16.40625 C 7.410156 -16.40625 6.640625 -15.800781 6.640625 -14.59375 C 6.640625 -14.113281 6.863281 -13.726562 7.3125 -13.4375 C 7.769531 -13.144531 8.332031 -12.867188 9 -12.609375 C 9.664062 -12.359375 10.398438 -12.085938 11.203125 -11.796875 C 12.003906 -11.503906 12.738281 -11.125 13.40625 -10.65625 C 14.070312 -10.1875 14.628906 -9.578125 15.078125 -8.828125 C 15.535156 -8.085938 15.765625 -7.128906 15.765625 -5.953125 C 15.765625 -3.929688 15.113281 -2.335938 13.8125 -1.171875 C 12.519531 -0.015625 10.582031 0.5625 8 0.5625 C 6.582031 0.5625 5.253906 0.378906 4.015625 0.015625 C 2.773438 -0.335938 1.769531 -0.753906 1 -1.234375 L 2.4375 -5.125 C 3.050781 -4.769531 3.863281 -4.425781 4.875 -4.09375 C 5.894531 -3.757812 6.9375 -3.59375 8 -3.59375 C 8.769531 -3.59375 9.390625 -3.738281 9.859375 -4.03125 C 10.328125 -4.332031 10.5625 -4.828125 10.5625 -5.515625 Z M 10.5625 -5.515625 "/></g></g></g><g fill="#000000" fill-opacity="1"><g transform="translate(36.11719, 306.802715)"><g><path d="M 8.53125 -0.46875 C 8.207031 -0.21875 7.800781 -0.046875 7.3125 0.046875 C 6.820312 0.140625 6.300781 0.1875 5.75 0.1875 C 5.070312 0.1875 4.4375 0.0703125 3.84375 -0.15625 C 3.257812 -0.382812 2.75 -0.734375 2.3125 -1.203125 C 1.875 -1.671875 1.523438 -2.269531 1.265625 -3 C 1.015625 -3.726562 0.890625 -4.59375 0.890625 -5.59375 C 0.890625 -6.644531 1.03125 -7.535156 1.3125 -8.265625 C 1.601562 -8.992188 1.976562 -9.585938 2.4375 -10.046875 C 2.90625 -10.515625 3.425781 -10.851562 4 -11.0625 C 4.570312 -11.28125 5.160156 -11.390625 5.765625 -11.390625 C 6.398438 -11.390625 6.921875 -11.351562 7.328125 -11.28125 C 7.734375 -11.21875 8.082031 -11.128906 8.375 -11.015625 L 8.046875 -9.84375 C 7.535156 -10.082031 6.804688 -10.203125 5.859375 -10.203125 C 5.421875 -10.203125 4.988281 -10.125 4.5625 -9.96875 C 4.132812 -9.8125 3.75 -9.550781 3.40625 -9.1875 C 3.070312 -8.820312 2.800781 -8.34375 2.59375 -7.75 C 2.394531 -7.164062 2.296875 -6.445312 2.296875 -5.59375 C 2.296875 -4.832031 2.390625 -4.160156 2.578125 -3.578125 C 2.773438 -3.003906 3.039062 -2.523438 3.375 -2.140625 C 3.71875 -1.753906 4.113281 -1.460938 4.5625 -1.265625 C 5.019531 -1.078125 5.515625 -0.984375 6.046875 -0.984375 C 6.523438 -0.984375 6.941406 -1.03125 7.296875 -1.125 C 7.660156 -1.226562 7.960938 -1.351562 8.203125 -1.5 Z M 8.53125 -0.46875 "/></g></g></g><g fill="#000000" fill-opacity="1"><g transform="translate(45.250993, 306.802715)"><g><path d="M 0.78125 -4 C 0.78125 -5.351562 1.082031 -6.390625 1.6875 -7.109375 C 2.289062 -7.828125 3.15625 -8.1875 4.28125 -8.1875 C 4.882812 -8.1875 5.40625 -8.085938 5.84375 -7.890625 C 6.289062 -7.691406 6.65625 -7.410156 6.9375 -7.046875 C 7.226562 -6.679688 7.441406 -6.238281 7.578125 -5.71875 C 7.722656 -5.195312 7.796875 -4.625 7.796875 -4 C 7.796875 -2.644531 7.492188 -1.609375 6.890625 -0.890625 C 6.285156 -0.171875 5.414062 0.1875 4.28125 0.1875 C 3.6875 0.1875 3.164062 0.0859375 2.71875 -0.109375 C 2.28125 -0.304688 1.914062 -0.585938 1.625 -0.953125 C 1.34375 -1.316406 1.128906 -1.757812 0.984375 -2.28125 C 0.847656 -2.800781 0.78125 -3.375 0.78125 -4 Z M 2.109375 -4 C 2.109375 -3.59375 2.148438 -3.203125 2.234375 -2.828125 C 2.316406 -2.453125 2.441406 -2.125 2.609375 -1.84375 C 2.773438 -1.570312 3 -1.347656 3.28125 -1.171875 C 3.5625 -1.003906 3.894531 -0.921875 4.28125 -0.921875 C 5.738281 -0.910156 6.46875 -1.9375 6.46875 -4 C 6.46875 -4.414062 6.425781 -4.8125 6.34375 -5.1875 C 6.257812 -5.5625 6.132812 -5.882812 5.96875 -6.15625 C 5.800781 -6.4375 5.578125 -6.660156 5.296875 -6.828125 C 5.015625 -6.992188 4.675781 -7.078125 4.28125 -7.078125 C 2.832031 -7.085938 2.109375 -6.0625 2.109375 -4 Z M 2.109375 -4 "/></g></g></g><g fill="#000000" fill-opacity="1"><g transform="translate(53.824929, 306.802715)"><g><path d="M 6.375 0 L 6.375 -4.5625 C 6.375 -5.394531 6.25 -6.019531 6 -6.4375 C 5.757812 -6.863281 5.320312 -7.078125 4.6875 -7.078125 C 4.125 -7.078125 3.65625 -6.921875 3.28125 -6.609375 C 2.914062 -6.304688 2.660156 -5.925781 2.515625 -5.46875 L 2.515625 0 L 1.234375 0 L 1.234375 -8 L 2.125 -8 L 2.375 -7.03125 L 2.4375 -7.03125 C 2.6875 -7.363281 3.023438 -7.640625 3.453125 -7.859375 C 3.890625 -8.078125 4.410156 -8.1875 5.015625 -8.1875 C 5.441406 -8.1875 5.820312 -8.132812 6.15625 -8.03125 C 6.488281 -7.9375 6.765625 -7.757812 6.984375 -7.5 C 7.203125 -7.25 7.363281 -6.90625 7.46875 -6.46875 C 7.582031 -6.039062 7.640625 -5.492188 7.640625 -4.828125 L 7.640625 0 Z M 6.375 0 "/></g></g></g><g fill="#000000" fill-opacity="1"><g transform="translate(62.574829, 306.802715)"><g><path d="M 7.078125 -0.640625 C 6.753906 -0.378906 6.347656 -0.175781 5.859375 -0.03125 C 5.378906 0.113281 4.863281 0.1875 4.3125 0.1875 C 3.707031 0.1875 3.179688 0.0859375 2.734375 -0.109375 C 2.285156 -0.304688 1.914062 -0.585938 1.625 -0.953125 C 1.34375 -1.316406 1.128906 -1.753906 0.984375 -2.265625 C 0.847656 -2.785156 0.78125 -3.363281 0.78125 -4 C 0.78125 -5.363281 1.082031 -6.398438 1.6875 -7.109375 C 2.300781 -7.828125 3.171875 -8.1875 4.296875 -8.1875 C 4.660156 -8.1875 5.023438 -8.144531 5.390625 -8.0625 C 5.753906 -7.988281 6.078125 -7.835938 6.359375 -7.609375 C 6.648438 -7.390625 6.882812 -7.070312 7.0625 -6.65625 C 7.25 -6.25 7.34375 -5.710938 7.34375 -5.046875 C 7.34375 -4.691406 7.3125 -4.300781 7.25 -3.875 L 2.109375 -3.875 C 2.109375 -3.40625 2.15625 -2.988281 2.25 -2.625 C 2.351562 -2.257812 2.503906 -1.953125 2.703125 -1.703125 C 2.910156 -1.453125 3.175781 -1.257812 3.5 -1.125 C 3.820312 -0.988281 4.21875 -0.921875 4.6875 -0.921875 C 5.050781 -0.921875 5.410156 -0.984375 5.765625 -1.109375 C 6.128906 -1.242188 6.40625 -1.394531 6.59375 -1.5625 Z M 4.3125 -7.078125 C 3.6875 -7.078125 3.179688 -6.910156 2.796875 -6.578125 C 2.421875 -6.242188 2.195312 -5.675781 2.125 -4.875 L 6.09375 -4.875 C 6.09375 -5.6875 5.9375 -6.253906 5.625 -6.578125 C 5.320312 -6.910156 4.882812 -7.078125 4.3125 -7.078125 Z M 4.3125 -7.078125 "/></g></g></g><g fill="#000000" fill-opacity="1"><g transform="translate(70.700878, 306.802715)"><g><path d="M 6.6875 -0.53125 C 6.363281 -0.289062 5.984375 -0.113281 5.546875 0 C 5.109375 0.125 4.648438 0.1875 4.171875 0.1875 C 3.554688 0.1875 3.035156 0.0859375 2.609375 -0.109375 C 2.179688 -0.304688 1.832031 -0.585938 1.5625 -0.953125 C 1.289062 -1.316406 1.09375 -1.757812 0.96875 -2.28125 C 0.84375 -2.800781 0.78125 -3.375 0.78125 -4 C 0.78125 -5.351562 1.078125 -6.390625 1.671875 -7.109375 C 2.273438 -7.828125 3.132812 -8.1875 4.25 -8.1875 C 4.769531 -8.1875 5.207031 -8.144531 5.5625 -8.0625 C 5.914062 -7.988281 6.238281 -7.878906 6.53125 -7.734375 L 6.15625 -6.625 C 5.914062 -6.757812 5.644531 -6.867188 5.34375 -6.953125 C 5.039062 -7.035156 4.722656 -7.078125 4.390625 -7.078125 C 2.867188 -7.078125 2.109375 -6.050781 2.109375 -4 C 2.109375 -3.59375 2.148438 -3.203125 2.234375 -2.828125 C 2.316406 -2.460938 2.445312 -2.140625 2.625 -1.859375 C 2.8125 -1.578125 3.054688 -1.347656 3.359375 -1.171875 C 3.671875 -1.003906 4.050781 -0.921875 4.5 -0.921875 C 4.882812 -0.921875 5.226562 -0.976562 5.53125 -1.09375 C 5.832031 -1.21875 6.078125 -1.351562 6.265625 -1.5 Z M 6.6875 -0.53125 "/></g></g></g><g fill="#000000" fill-opacity="1"><g transform="translate(77.915142, 306.802715)"><g><path d="M 0.171875 -8 L 1.421875 -8 L 1.421875 -9.578125 L 2.703125 -9.953125 L 2.703125 -8 L 4.875 -8 L 4.875 -6.875 L 2.703125 -6.875 L 2.703125 -2.453125 C 2.703125 -1.890625 2.769531 -1.492188 2.90625 -1.265625 C 3.050781 -1.035156 3.285156 -0.921875 3.609375 -0.921875 C 3.890625 -0.921875 4.125 -0.953125 4.3125 -1.015625 C 4.507812 -1.078125 4.722656 -1.15625 4.953125 -1.25 L 5.25 -0.265625 C 4.957031 -0.128906 4.640625 -0.0195312 4.296875 0.0625 C 3.960938 0.144531 3.597656 0.1875 3.203125 0.1875 C 2.546875 0.1875 2.082031 0.00390625 1.8125 -0.359375 C 1.550781 -0.722656 1.421875 -1.335938 1.421875 -2.203125 L 1.421875 -6.875 L 0.171875 -6.875 Z M 0.171875 -8 "/></g></g></g><g fill="#000000" fill-opacity="1"><g transform="translate(83.337844, 306.802715)"><g><path d="M 1.109375 -7.40625 C 1.515625 -7.65625 1.984375 -7.835938 2.515625 -7.953125 C 3.054688 -8.066406 3.617188 -8.125 4.203125 -8.125 C 4.765625 -8.125 5.210938 -8.050781 5.546875 -7.90625 C 5.878906 -7.757812 6.132812 -7.5625 6.3125 -7.3125 C 6.488281 -7.070312 6.601562 -6.804688 6.65625 -6.515625 C 6.71875 -6.234375 6.75 -5.945312 6.75 -5.65625 C 6.75 -5.019531 6.734375 -4.394531 6.703125 -3.78125 C 6.671875 -3.175781 6.65625 -2.601562 6.65625 -2.0625 C 6.65625 -1.664062 6.671875 -1.289062 6.703125 -0.9375 C 6.734375 -0.59375 6.789062 -0.269531 6.875 0.03125 L 5.9375 0.03125 L 5.59375 -1.09375 L 5.515625 -1.09375 C 5.421875 -0.9375 5.300781 -0.785156 5.15625 -0.640625 C 5.007812 -0.503906 4.835938 -0.378906 4.640625 -0.265625 C 4.441406 -0.148438 4.207031 -0.0546875 3.9375 0.015625 C 3.664062 0.0859375 3.363281 0.125 3.03125 0.125 C 2.6875 0.125 2.363281 0.0703125 2.0625 -0.03125 C 1.769531 -0.132812 1.515625 -0.285156 1.296875 -0.484375 C 1.085938 -0.679688 0.921875 -0.914062 0.796875 -1.1875 C 0.679688 -1.46875 0.625 -1.785156 0.625 -2.140625 C 0.625 -2.609375 0.71875 -3 0.90625 -3.3125 C 1.101562 -3.632812 1.375 -3.890625 1.71875 -4.078125 C 2.0625 -4.265625 2.476562 -4.394531 2.96875 -4.46875 C 3.457031 -4.550781 3.992188 -4.59375 4.578125 -4.59375 C 4.722656 -4.59375 4.867188 -4.59375 5.015625 -4.59375 C 5.160156 -4.59375 5.304688 -4.582031 5.453125 -4.5625 C 5.484375 -4.882812 5.5 -5.171875 5.5 -5.421875 C 5.5 -6.003906 5.378906 -6.414062 5.140625 -6.65625 C 4.910156 -6.894531 4.488281 -7.015625 3.875 -7.015625 C 3.6875 -7.015625 3.488281 -7 3.28125 -6.96875 C 3.070312 -6.9375 2.859375 -6.894531 2.640625 -6.84375 C 2.421875 -6.800781 2.210938 -6.742188 2.015625 -6.671875 C 1.828125 -6.609375 1.65625 -6.535156 1.5 -6.453125 Z M 3.375 -0.984375 C 3.675781 -0.984375 3.941406 -1.023438 4.171875 -1.109375 C 4.410156 -1.191406 4.613281 -1.289062 4.78125 -1.40625 C 4.957031 -1.53125 5.097656 -1.664062 5.203125 -1.8125 C 5.316406 -1.96875 5.398438 -2.113281 5.453125 -2.25 L 5.453125 -3.578125 C 5.304688 -3.585938 5.15625 -3.59375 5 -3.59375 C 4.84375 -3.601562 4.691406 -3.609375 4.546875 -3.609375 C 4.210938 -3.609375 3.890625 -3.585938 3.578125 -3.546875 C 3.265625 -3.515625 2.988281 -3.445312 2.75 -3.34375 C 2.507812 -3.25 2.316406 -3.113281 2.171875 -2.9375 C 2.023438 -2.757812 1.953125 -2.535156 1.953125 -2.265625 C 1.953125 -1.898438 2.082031 -1.59375 2.34375 -1.34375 C 2.613281 -1.101562 2.957031 -0.984375 3.375 -0.984375 Z M 3.375 -0.984375 "/></g></g></g><g fill="#000000" fill-opacity="1"><g transform="translate(91.271941, 306.802715)"><g><path d="M 6.375 0 L 6.375 -4.5625 C 6.375 -5.394531 6.25 -6.019531 6 -6.4375 C 5.757812 -6.863281 5.320312 -7.078125 4.6875 -7.078125 C 4.125 -7.078125 3.65625 -6.921875 3.28125 -6.609375 C 2.914062 -6.304688 2.660156 -5.925781 2.515625 -5.46875 L 2.515625 0 L 1.234375 0 L 1.234375 -8 L 2.125 -8 L 2.375 -7.03125 L 2.4375 -7.03125 C 2.6875 -7.363281 3.023438 -7.640625 3.453125 -7.859375 C 3.890625 -8.078125 4.410156 -8.1875 5.015625 -8.1875 C 5.441406 -8.1875 5.820312 -8.132812 6.15625 -8.03125 C 6.488281 -7.9375 6.765625 -7.757812 6.984375 -7.5 C 7.203125 -7.25 7.363281 -6.90625 7.46875 -6.46875 C 7.582031 -6.039062 7.640625 -5.492188 7.640625 -4.828125 L 7.640625 0 Z M 6.375 0 "/></g></g></g><g fill="#000000" fill-opacity="1"><g transform="translate(100.021841, 306.802715)"><g><path d="M 7.375 -2.75 C 7.375 -2.207031 7.378906 -1.710938 7.390625 -1.265625 C 7.398438 -0.828125 7.445312 -0.394531 7.53125 0.03125 L 6.671875 0.03125 L 6.359375 -1.109375 L 6.28125 -1.109375 C 6.070312 -0.734375 5.765625 -0.421875 5.359375 -0.171875 C 4.953125 0.0664062 4.476562 0.1875 3.9375 0.1875 C 2.875 0.1875 2.082031 -0.144531 1.5625 -0.8125 C 1.039062 -1.488281 0.78125 -2.539062 0.78125 -3.96875 C 0.78125 -5.332031 1.101562 -6.367188 1.75 -7.078125 C 2.394531 -7.785156 3.285156 -8.140625 4.421875 -8.140625 C 4.816406 -8.140625 5.128906 -8.117188 5.359375 -8.078125 C 5.585938 -8.035156 5.832031 -7.96875 6.09375 -7.875 L 6.09375 -11.203125 L 7.375 -11.203125 Z M 4.140625 -0.921875 C 4.679688 -0.921875 5.113281 -1.0625 5.4375 -1.34375 C 5.757812 -1.632812 5.976562 -2.066406 6.09375 -2.640625 L 6.09375 -6.609375 C 5.90625 -6.753906 5.6875 -6.859375 5.4375 -6.921875 C 5.195312 -6.992188 4.875 -7.03125 4.46875 -7.03125 C 3.726562 -7.03125 3.148438 -6.785156 2.734375 -6.296875 C 2.316406 -5.804688 2.109375 -5.03125 2.109375 -3.96875 C 2.109375 -3.53125 2.140625 -3.125 2.203125 -2.75 C 2.273438 -2.375 2.390625 -2.050781 2.546875 -1.78125 C 2.710938 -1.519531 2.925781 -1.3125 3.1875 -1.15625 C 3.445312 -1 3.765625 -0.921875 4.140625 -0.921875 Z M 4.140625 -0.921875 "/></g></g></g><g fill="#000000" fill-opacity="1"><g transform="translate(108.627775, 306.802715)"><g><path d="M 0.78125 -4 C 0.78125 -5.351562 1.082031 -6.390625 1.6875 -7.109375 C 2.289062 -7.828125 3.15625 -8.1875 4.28125 -8.1875 C 4.882812 -8.1875 5.40625 -8.085938 5.84375 -7.890625 C 6.289062 -7.691406 6.65625 -7.410156 6.9375 -7.046875 C 7.226562 -6.679688 7.441406 -6.238281 7.578125 -5.71875 C 7.722656 -5.195312 7.796875 -4.625 7.796875 -4 C 7.796875 -2.644531 7.492188 -1.609375 6.890625 -0.890625 C 6.285156 -0.171875 5.414062 0.1875 4.28125 0.1875 C 3.6875 0.1875 3.164062 0.0859375 2.71875 -0.109375 C 2.28125 -0.304688 1.914062 -0.585938 1.625 -0.953125 C 1.34375 -1.316406 1.128906 -1.757812 0.984375 -2.28125 C 0.847656 -2.800781 0.78125 -3.375 0.78125 -4 Z M 2.109375 -4 C 2.109375 -3.59375 2.148438 -3.203125 2.234375 -2.828125 C 2.316406 -2.453125 2.441406 -2.125 2.609375 -1.84375 C 2.773438 -1.570312 3 -1.347656 3.28125 -1.171875 C 3.5625 -1.003906 3.894531 -0.921875 4.28125 -0.921875 C 5.738281 -0.910156 6.46875 -1.9375 6.46875 -4 C 6.46875 -4.414062 6.425781 -4.8125 6.34375 -5.1875 C 6.257812 -5.5625 6.132812 -5.882812 5.96875 -6.15625 C 5.800781 -6.4375 5.578125 -6.660156 5.296875 -6.828125 C 5.015625 -6.992188 4.675781 -7.078125 4.28125 -7.078125 C 2.832031 -7.085938 2.109375 -6.0625 2.109375 -4 Z M 2.109375 -4 "/></g></g></g><g fill="#000000" fill-opacity="1"><g transform="translate(117.20171, 306.802715)"><g/></g></g><g fill="#000000" fill-opacity="1"><g transform="translate(121.47268, 306.802715)"><g><path d="M 0.171875 -8 L 1.421875 -8 L 1.421875 -9.578125 L 2.703125 -9.953125 L 2.703125 -8 L 4.875 -8 L 4.875 -6.875 L 2.703125 -6.875 L 2.703125 -2.453125 C 2.703125 -1.890625 2.769531 -1.492188 2.90625 -1.265625 C 3.050781 -1.035156 3.285156 -0.921875 3.609375 -0.921875 C 3.890625 -0.921875 4.125 -0.953125 4.3125 -1.015625 C 4.507812 -1.078125 4.722656 -1.15625 4.953125 -1.25 L 5.25 -0.265625 C 4.957031 -0.128906 4.640625 -0.0195312 4.296875 0.0625 C 3.960938 0.144531 3.597656 0.1875 3.203125 0.1875 C 2.546875 0.1875 2.082031 0.00390625 1.8125 -0.359375 C 1.550781 -0.722656 1.421875 -1.335938 1.421875 -2.203125 L 1.421875 -6.875 L 0.171875 -6.875 Z M 0.171875 -8 "/></g></g></g><g fill="#000000" fill-opacity="1"><g transform="translate(126.895382, 306.802715)"><g><path d="M 2.390625 -8 L 2.390625 -3.4375 C 2.390625 -3.019531 2.410156 -2.65625 2.453125 -2.34375 C 2.503906 -2.03125 2.585938 -1.769531 2.703125 -1.5625 C 2.816406 -1.351562 2.972656 -1.191406 3.171875 -1.078125 C 3.378906 -0.972656 3.640625 -0.921875 3.953125 -0.921875 C 4.242188 -0.921875 4.5 -0.96875 4.71875 -1.0625 C 4.945312 -1.15625 5.144531 -1.28125 5.3125 -1.4375 C 5.488281 -1.601562 5.644531 -1.785156 5.78125 -1.984375 C 5.914062 -2.191406 6.023438 -2.414062 6.109375 -2.65625 L 6.109375 -8 L 7.390625 -8 L 7.390625 -2.265625 C 7.390625 -1.890625 7.398438 -1.492188 7.421875 -1.078125 C 7.453125 -0.671875 7.5 -0.3125 7.5625 0 L 6.6875 0 L 6.375 -1.265625 L 6.28125 -1.265625 C 6.039062 -0.847656 5.710938 -0.5 5.296875 -0.21875 C 4.878906 0.0507812 4.351562 0.1875 3.71875 0.1875 C 3.289062 0.1875 2.910156 0.132812 2.578125 0.03125 C 2.253906 -0.0625 1.984375 -0.234375 1.765625 -0.484375 C 1.546875 -0.742188 1.378906 -1.085938 1.265625 -1.515625 C 1.160156 -1.953125 1.109375 -2.503906 1.109375 -3.171875 L 1.109375 -8 Z M 2.390625 -8 "/></g></g></g><g fill="#000000" fill-opacity="1"><g transform="translate(135.517314, 306.802715)"><g/></g></g><g fill="#000000" fill-opacity="1"><g transform="translate(139.788284, 306.802715)"><g><path d="M 5.921875 0 L 5.921875 -4.53125 C 5.921875 -4.957031 5.898438 -5.328125 5.859375 -5.640625 C 5.828125 -5.953125 5.753906 -6.210938 5.640625 -6.421875 C 5.535156 -6.640625 5.382812 -6.800781 5.1875 -6.90625 C 4.988281 -7.019531 4.734375 -7.078125 4.421875 -7.078125 C 3.929688 -7.078125 3.519531 -6.925781 3.1875 -6.625 C 2.863281 -6.320312 2.640625 -5.945312 2.515625 -5.5 L 2.515625 0 L 1.234375 0 L 1.234375 -8 L 2.125 -8 L 2.375 -7.03125 L 2.4375 -7.03125 C 2.71875 -7.363281 3.046875 -7.640625 3.421875 -7.859375 C 3.804688 -8.078125 4.300781 -8.1875 4.90625 -8.1875 C 5.425781 -8.1875 5.847656 -8.085938 6.171875 -7.890625 C 6.492188 -7.691406 6.742188 -7.347656 6.921875 -6.859375 C 7.171875 -7.273438 7.507812 -7.597656 7.9375 -7.828125 C 8.375 -8.066406 8.863281 -8.1875 9.40625 -8.1875 C 9.851562 -8.1875 10.234375 -8.132812 10.546875 -8.03125 C 10.859375 -7.9375 11.113281 -7.757812 11.3125 -7.5 C 11.507812 -7.25 11.65625 -6.90625 11.75 -6.46875 C 11.84375 -6.03125 11.890625 -5.472656 11.890625 -4.796875 L 11.890625 0 L 10.609375 0 L 10.609375 -4.8125 C 10.609375 -5.195312 10.585938 -5.53125 10.546875 -5.8125 C 10.515625 -6.09375 10.441406 -6.328125 10.328125 -6.515625 C 10.210938 -6.703125 10.054688 -6.84375 9.859375 -6.9375 C 9.660156 -7.03125 9.40625 -7.078125 9.09375 -7.078125 C 8.550781 -7.078125 8.128906 -6.925781 7.828125 -6.625 C 7.535156 -6.320312 7.328125 -5.894531 7.203125 -5.34375 L 7.203125 0 Z M 5.921875 0 "/></g></g></g><g fill="#000000" fill-opacity="1"><g transform="translate(152.777167, 306.802715)"><g><path d="M 2.390625 -8 L 2.390625 -3.4375 C 2.390625 -3.019531 2.410156 -2.65625 2.453125 -2.34375 C 2.503906 -2.03125 2.585938 -1.769531 2.703125 -1.5625 C 2.816406 -1.351562 2.972656 -1.191406 3.171875 -1.078125 C 3.378906 -0.972656 3.640625 -0.921875 3.953125 -0.921875 C 4.242188 -0.921875 4.5 -0.96875 4.71875 -1.0625 C 4.945312 -1.15625 5.144531 -1.28125 5.3125 -1.4375 C 5.488281 -1.601562 5.644531 -1.785156 5.78125 -1.984375 C 5.914062 -2.191406 6.023438 -2.414062 6.109375 -2.65625 L 6.109375 -8 L 7.390625 -8 L 7.390625 -2.265625 C 7.390625 -1.890625 7.398438 -1.492188 7.421875 -1.078125 C 7.453125 -0.671875 7.5 -0.3125 7.5625 0 L 6.6875 0 L 6.375 -1.265625 L 6.28125 -1.265625 C 6.039062 -0.847656 5.710938 -0.5 5.296875 -0.21875 C 4.878906 0.0507812 4.351562 0.1875 3.71875 0.1875 C 3.289062 0.1875 2.910156 0.132812 2.578125 0.03125 C 2.253906 -0.0625 1.984375 -0.234375 1.765625 -0.484375 C 1.546875 -0.742188 1.378906 -1.085938 1.265625 -1.515625 C 1.160156 -1.953125 1.109375 -2.503906 1.109375 -3.171875 L 1.109375 -8 Z M 2.390625 -8 "/></g></g></g><g fill="#000000" fill-opacity="1"><g transform="translate(161.399099, 306.802715)"><g><path d="M 6.375 0 L 6.375 -4.5625 C 6.375 -5.394531 6.25 -6.019531 6 -6.4375 C 5.757812 -6.863281 5.320312 -7.078125 4.6875 -7.078125 C 4.125 -7.078125 3.65625 -6.921875 3.28125 -6.609375 C 2.914062 -6.304688 2.660156 -5.925781 2.515625 -5.46875 L 2.515625 0 L 1.234375 0 L 1.234375 -8 L 2.125 -8 L 2.375 -7.03125 L 2.4375 -7.03125 C 2.6875 -7.363281 3.023438 -7.640625 3.453125 -7.859375 C 3.890625 -8.078125 4.410156 -8.1875 5.015625 -8.1875 C 5.441406 -8.1875 5.820312 -8.132812 6.15625 -8.03125 C 6.488281 -7.9375 6.765625 -7.757812 6.984375 -7.5 C 7.203125 -7.25 7.363281 -6.90625 7.46875 -6.46875 C 7.582031 -6.039062 7.640625 -5.492188 7.640625 -4.828125 L 7.640625 0 Z M 6.375 0 "/></g></g></g><g fill="#000000" fill-opacity="1"><g transform="translate(170.148999, 306.802715)"><g><path d="M 7.375 -2.75 C 7.375 -2.207031 7.378906 -1.710938 7.390625 -1.265625 C 7.398438 -0.828125 7.445312 -0.394531 7.53125 0.03125 L 6.671875 0.03125 L 6.359375 -1.109375 L 6.28125 -1.109375 C 6.070312 -0.734375 5.765625 -0.421875 5.359375 -0.171875 C 4.953125 0.0664062 4.476562 0.1875 3.9375 0.1875 C 2.875 0.1875 2.082031 -0.144531 1.5625 -0.8125 C 1.039062 -1.488281 0.78125 -2.539062 0.78125 -3.96875 C 0.78125 -5.332031 1.101562 -6.367188 1.75 -7.078125 C 2.394531 -7.785156 3.285156 -8.140625 4.421875 -8.140625 C 4.816406 -8.140625 5.128906 -8.117188 5.359375 -8.078125 C 5.585938 -8.035156 5.832031 -7.96875 6.09375 -7.875 L 6.09375 -11.203125 L 7.375 -11.203125 Z M 4.140625 -0.921875 C 4.679688 -0.921875 5.113281 -1.0625 5.4375 -1.34375 C 5.757812 -1.632812 5.976562 -2.066406 6.09375 -2.640625 L 6.09375 -6.609375 C 5.90625 -6.753906 5.6875 -6.859375 5.4375 -6.921875 C 5.195312 -6.992188 4.875 -7.03125 4.46875 -7.03125 C 3.726562 -7.03125 3.148438 -6.785156 2.734375 -6.296875 C 2.316406 -5.804688 2.109375 -5.03125 2.109375 -3.96875 C 2.109375 -3.53125 2.140625 -3.125 2.203125 -2.75 C 2.273438 -2.375 2.390625 -2.050781 2.546875 -1.78125 C 2.710938 -1.519531 2.925781 -1.3125 3.1875 -1.15625 C 3.445312 -1 3.765625 -0.921875 4.140625 -0.921875 Z M 4.140625 -0.921875 "/></g></g></g><g fill="#000000" fill-opacity="1"><g transform="translate(178.754933, 306.802715)"><g><path d="M 0.78125 -4 C 0.78125 -5.351562 1.082031 -6.390625 1.6875 -7.109375 C 2.289062 -7.828125 3.15625 -8.1875 4.28125 -8.1875 C 4.882812 -8.1875 5.40625 -8.085938 5.84375 -7.890625 C 6.289062 -7.691406 6.65625 -7.410156 6.9375 -7.046875 C 7.226562 -6.679688 7.441406 -6.238281 7.578125 -5.71875 C 7.722656 -5.195312 7.796875 -4.625 7.796875 -4 C 7.796875 -2.644531 7.492188 -1.609375 6.890625 -0.890625 C 6.285156 -0.171875 5.414062 0.1875 4.28125 0.1875 C 3.6875 0.1875 3.164062 0.0859375 2.71875 -0.109375 C 2.28125 -0.304688 1.914062 -0.585938 1.625 -0.953125 C 1.34375 -1.316406 1.128906 -1.757812 0.984375 -2.28125 C 0.847656 -2.800781 0.78125 -3.375 0.78125 -4 Z M 2.109375 -4 C 2.109375 -3.59375 2.148438 -3.203125 2.234375 -2.828125 C 2.316406 -2.453125 2.441406 -2.125 2.609375 -1.84375 C 2.773438 -1.570312 3 -1.347656 3.28125 -1.171875 C 3.5625 -1.003906 3.894531 -0.921875 4.28125 -0.921875 C 5.738281 -0.910156 6.46875 -1.9375 6.46875 -4 C 6.46875 -4.414062 6.425781 -4.8125 6.34375 -5.1875 C 6.257812 -5.5625 6.132812 -5.882812 5.96875 -6.15625 C 5.800781 -6.4375 5.578125 -6.660156 5.296875 -6.828125 C 5.015625 -6.992188 4.675781 -7.078125 4.28125 -7.078125 C 2.832031 -7.085938 2.109375 -6.0625 2.109375 -4 Z M 2.109375 -4 "/></g></g></g><g fill="#000000" fill-opacity="1"><g transform="translate(187.328869, 306.802715)"><g><path d="M 0.78125 -0.6875 C 0.78125 -0.945312 0.863281 -1.15625 1.03125 -1.3125 C 1.207031 -1.46875 1.429688 -1.546875 1.703125 -1.546875 C 2.023438 -1.546875 2.289062 -1.425781 2.5 -1.1875 C 2.707031 -0.957031 2.8125 -0.617188 2.8125 -0.171875 C 2.8125 0.210938 2.757812 0.546875 2.65625 0.828125 C 2.550781 1.117188 2.410156 1.367188 2.234375 1.578125 C 2.066406 1.785156 1.878906 1.953125 1.671875 2.078125 C 1.472656 2.210938 1.273438 2.316406 1.078125 2.390625 L 0.671875 1.765625 C 1.054688 1.609375 1.34375 1.375 1.53125 1.0625 C 1.71875 0.75 1.8125 0.429688 1.8125 0.109375 C 1.707031 0.140625 1.613281 0.15625 1.53125 0.15625 C 1.320312 0.15625 1.144531 0.0859375 1 -0.046875 C 0.851562 -0.191406 0.78125 -0.40625 0.78125 -0.6875 Z M 0.78125 -0.6875 "/></g></g></g><g fill="#000000" fill-opacity="1"><g transform="translate(190.928001, 306.802715)"><g/></g></g><g fill="#000000" fill-opacity="1"><g transform="translate(195.19897, 306.802715)"><g><path d="M 1.109375 -7.40625 C 1.515625 -7.65625 1.984375 -7.835938 2.515625 -7.953125 C 3.054688 -8.066406 3.617188 -8.125 4.203125 -8.125 C 4.765625 -8.125 5.210938 -8.050781 5.546875 -7.90625 C 5.878906 -7.757812 6.132812 -7.5625 6.3125 -7.3125 C 6.488281 -7.070312 6.601562 -6.804688 6.65625 -6.515625 C 6.71875 -6.234375 6.75 -5.945312 6.75 -5.65625 C 6.75 -5.019531 6.734375 -4.394531 6.703125 -3.78125 C 6.671875 -3.175781 6.65625 -2.601562 6.65625 -2.0625 C 6.65625 -1.664062 6.671875 -1.289062 6.703125 -0.9375 C 6.734375 -0.59375 6.789062 -0.269531 6.875 0.03125 L 5.9375 0.03125 L 5.59375 -1.09375 L 5.515625 -1.09375 C 5.421875 -0.9375 5.300781 -0.785156 5.15625 -0.640625 C 5.007812 -0.503906 4.835938 -0.378906 4.640625 -0.265625 C 4.441406 -0.148438 4.207031 -0.0546875 3.9375 0.015625 C 3.664062 0.0859375 3.363281 0.125 3.03125 0.125 C 2.6875 0.125 2.363281 0.0703125 2.0625 -0.03125 C 1.769531 -0.132812 1.515625 -0.285156 1.296875 -0.484375 C 1.085938 -0.679688 0.921875 -0.914062 0.796875 -1.1875 C 0.679688 -1.46875 0.625 -1.785156 0.625 -2.140625 C 0.625 -2.609375 0.71875 -3 0.90625 -3.3125 C 1.101562 -3.632812 1.375 -3.890625 1.71875 -4.078125 C 2.0625 -4.265625 2.476562 -4.394531 2.96875 -4.46875 C 3.457031 -4.550781 3.992188 -4.59375 4.578125 -4.59375 C 4.722656 -4.59375 4.867188 -4.59375 5.015625 -4.59375 C 5.160156 -4.59375 5.304688 -4.582031 5.453125 -4.5625 C 5.484375 -4.882812 5.5 -5.171875 5.5 -5.421875 C 5.5 -6.003906 5.378906 -6.414062 5.140625 -6.65625 C 4.910156 -6.894531 4.488281 -7.015625 3.875 -7.015625 C 3.6875 -7.015625 3.488281 -7 3.28125 -6.96875 C 3.070312 -6.9375 2.859375 -6.894531 2.640625 -6.84375 C 2.421875 -6.800781 2.210938 -6.742188 2.015625 -6.671875 C 1.828125 -6.609375 1.65625 -6.535156 1.5 -6.453125 Z M 3.375 -0.984375 C 3.675781 -0.984375 3.941406 -1.023438 4.171875 -1.109375 C 4.410156 -1.191406 4.613281 -1.289062 4.78125 -1.40625 C 4.957031 -1.53125 5.097656 -1.664062 5.203125 -1.8125 C 5.316406 -1.96875 5.398438 -2.113281 5.453125 -2.25 L 5.453125 -3.578125 C 5.304688 -3.585938 5.15625 -3.59375 5 -3.59375 C 4.84375 -3.601562 4.691406 -3.609375 4.546875 -3.609375 C 4.210938 -3.609375 3.890625 -3.585938 3.578125 -3.546875 C 3.265625 -3.515625 2.988281 -3.445312 2.75 -3.34375 C 2.507812 -3.25 2.316406 -3.113281 2.171875 -2.9375 C 2.023438 -2.757812 1.953125 -2.535156 1.953125 -2.265625 C 1.953125 -1.898438 2.082031 -1.59375 2.34375 -1.34375 C 2.613281 -1.101562 2.957031 -0.984375 3.375 -0.984375 Z M 3.375 -0.984375 "/></g></g></g><g fill="#000000" fill-opacity="1"><g transform="translate(203.133067, 306.802715)"><g><path d="M 4.75 -2.171875 C 4.75 -2.492188 4.648438 -2.742188 4.453125 -2.921875 C 4.265625 -3.109375 4.03125 -3.257812 3.75 -3.375 C 3.46875 -3.5 3.15625 -3.617188 2.8125 -3.734375 C 2.476562 -3.847656 2.171875 -3.992188 1.890625 -4.171875 C 1.609375 -4.347656 1.367188 -4.570312 1.171875 -4.84375 C 0.984375 -5.125 0.890625 -5.5 0.890625 -5.96875 C 0.890625 -6.738281 1.109375 -7.300781 1.546875 -7.65625 C 1.984375 -8.007812 2.59375 -8.1875 3.375 -8.1875 C 3.945312 -8.1875 4.425781 -8.132812 4.8125 -8.03125 C 5.207031 -7.9375 5.550781 -7.820312 5.84375 -7.6875 L 5.53125 -6.625 C 5.289062 -6.738281 4.992188 -6.84375 4.640625 -6.9375 C 4.296875 -7.03125 3.925781 -7.078125 3.53125 -7.078125 C 3.0625 -7.078125 2.71875 -6.992188 2.5 -6.828125 C 2.28125 -6.671875 2.171875 -6.394531 2.171875 -6 C 2.171875 -5.71875 2.265625 -5.5 2.453125 -5.34375 C 2.648438 -5.195312 2.890625 -5.0625 3.171875 -4.9375 C 3.453125 -4.8125 3.757812 -4.691406 4.09375 -4.578125 C 4.4375 -4.460938 4.75 -4.304688 5.03125 -4.109375 C 5.3125 -3.921875 5.546875 -3.675781 5.734375 -3.375 C 5.929688 -3.082031 6.03125 -2.695312 6.03125 -2.21875 C 6.03125 -1.882812 5.972656 -1.566406 5.859375 -1.265625 C 5.753906 -0.960938 5.582031 -0.703125 5.34375 -0.484375 C 5.101562 -0.273438 4.8125 -0.113281 4.46875 0 C 4.125 0.125 3.71875 0.1875 3.25 0.1875 C 2.644531 0.1875 2.128906 0.128906 1.703125 0.015625 C 1.273438 -0.0976562 0.914062 -0.238281 0.625 -0.40625 L 1.015625 -1.484375 C 1.253906 -1.347656 1.570312 -1.21875 1.96875 -1.09375 C 2.363281 -0.976562 2.765625 -0.921875 3.171875 -0.921875 C 3.628906 -0.921875 4.003906 -1.007812 4.296875 -1.1875 C 4.597656 -1.375 4.75 -1.703125 4.75 -2.171875 Z M 4.75 -2.171875 "/></g></g></g><g fill="#000000" fill-opacity="1"><g transform="translate(209.867446, 306.802715)"><g><path d="M 7.078125 -0.640625 C 6.753906 -0.378906 6.347656 -0.175781 5.859375 -0.03125 C 5.378906 0.113281 4.863281 0.1875 4.3125 0.1875 C 3.707031 0.1875 3.179688 0.0859375 2.734375 -0.109375 C 2.285156 -0.304688 1.914062 -0.585938 1.625 -0.953125 C 1.34375 -1.316406 1.128906 -1.753906 0.984375 -2.265625 C 0.847656 -2.785156 0.78125 -3.363281 0.78125 -4 C 0.78125 -5.363281 1.082031 -6.398438 1.6875 -7.109375 C 2.300781 -7.828125 3.171875 -8.1875 4.296875 -8.1875 C 4.660156 -8.1875 5.023438 -8.144531 5.390625 -8.0625 C 5.753906 -7.988281 6.078125 -7.835938 6.359375 -7.609375 C 6.648438 -7.390625 6.882812 -7.070312 7.0625 -6.65625 C 7.25 -6.25 7.34375 -5.710938 7.34375 -5.046875 C 7.34375 -4.691406 7.3125 -4.300781 7.25 -3.875 L 2.109375 -3.875 C 2.109375 -3.40625 2.15625 -2.988281 2.25 -2.625 C 2.351562 -2.257812 2.503906 -1.953125 2.703125 -1.703125 C 2.910156 -1.453125 3.175781 -1.257812 3.5 -1.125 C 3.820312 -0.988281 4.21875 -0.921875 4.6875 -0.921875 C 5.050781 -0.921875 5.410156 -0.984375 5.765625 -1.109375 C 6.128906 -1.242188 6.40625 -1.394531 6.59375 -1.5625 Z M 4.3125 -7.078125 C 3.6875 -7.078125 3.179688 -6.910156 2.796875 -6.578125 C 2.421875 -6.242188 2.195312 -5.675781 2.125 -4.875 L 6.09375 -4.875 C 6.09375 -5.6875 5.9375 -6.253906 5.625 -6.578125 C 5.320312 -6.910156 4.882812 -7.078125 4.3125 -7.078125 Z M 4.3125 -7.078125 "/></g></g></g><g fill="#000000" fill-opacity="1"><g transform="translate(217.993494, 306.802715)"><g><path d="M 7.359375 0.375 C 7.359375 1.40625 7.082031 2.164062 6.53125 2.65625 C 5.988281 3.144531 5.175781 3.390625 4.09375 3.390625 C 3.457031 3.390625 2.941406 3.347656 2.546875 3.265625 C 2.160156 3.191406 1.828125 3.085938 1.546875 2.953125 L 1.890625 1.875 C 2.128906 1.96875 2.398438 2.054688 2.703125 2.140625 C 3.003906 2.222656 3.394531 2.265625 3.875 2.265625 C 4.320312 2.265625 4.6875 2.222656 4.96875 2.140625 C 5.25 2.066406 5.472656 1.9375 5.640625 1.75 C 5.816406 1.5625 5.9375 1.320312 6 1.03125 C 6.0625 0.738281 6.09375 0.390625 6.09375 -0.015625 L 6.09375 -0.78125 L 6.03125 -0.78125 C 5.820312 -0.46875 5.550781 -0.226562 5.21875 -0.0625 C 4.882812 0.09375 4.453125 0.171875 3.921875 0.171875 C 2.835938 0.171875 2.039062 -0.160156 1.53125 -0.828125 C 1.03125 -1.503906 0.78125 -2.550781 0.78125 -3.96875 C 0.78125 -5.332031 1.101562 -6.367188 1.75 -7.078125 C 2.40625 -7.785156 3.367188 -8.140625 4.640625 -8.140625 C 5.242188 -8.140625 5.757812 -8.09375 6.1875 -8 C 6.625 -7.90625 7.015625 -7.789062 7.359375 -7.65625 Z M 4.140625 -0.9375 C 4.679688 -0.9375 5.109375 -1.070312 5.421875 -1.34375 C 5.734375 -1.625 5.953125 -2.050781 6.078125 -2.625 L 6.078125 -6.71875 C 5.648438 -6.925781 5.109375 -7.03125 4.453125 -7.03125 C 3.722656 -7.03125 3.148438 -6.78125 2.734375 -6.28125 C 2.316406 -5.789062 2.109375 -5.023438 2.109375 -3.984375 C 2.109375 -3.535156 2.144531 -3.125 2.21875 -2.75 C 2.300781 -2.375 2.421875 -2.050781 2.578125 -1.78125 C 2.734375 -1.519531 2.9375 -1.3125 3.1875 -1.15625 C 3.445312 -1.007812 3.765625 -0.9375 4.140625 -0.9375 Z M 4.140625 -0.9375 "/></g></g></g><g fill="#000000" fill-opacity="1"><g transform="translate(226.583429, 306.802715)"><g><path d="M 2.390625 -8 L 2.390625 -3.4375 C 2.390625 -3.019531 2.410156 -2.65625 2.453125 -2.34375 C 2.503906 -2.03125 2.585938 -1.769531 2.703125 -1.5625 C 2.816406 -1.351562 2.972656 -1.191406 3.171875 -1.078125 C 3.378906 -0.972656 3.640625 -0.921875 3.953125 -0.921875 C 4.242188 -0.921875 4.5 -0.96875 4.71875 -1.0625 C 4.945312 -1.15625 5.144531 -1.28125 5.3125 -1.4375 C 5.488281 -1.601562 5.644531 -1.785156 5.78125 -1.984375 C 5.914062 -2.191406 6.023438 -2.414062 6.109375 -2.65625 L 6.109375 -8 L 7.390625 -8 L 7.390625 -2.265625 C 7.390625 -1.890625 7.398438 -1.492188 7.421875 -1.078125 C 7.453125 -0.671875 7.5 -0.3125 7.5625 0 L 6.6875 0 L 6.375 -1.265625 L 6.28125 -1.265625 C 6.039062 -0.847656 5.710938 -0.5 5.296875 -0.21875 C 4.878906 0.0507812 4.351562 0.1875 3.71875 0.1875 C 3.289062 0.1875 2.910156 0.132812 2.578125 0.03125 C 2.253906 -0.0625 1.984375 -0.234375 1.765625 -0.484375 C 1.546875 -0.742188 1.378906 -1.085938 1.265625 -1.515625 C 1.160156 -1.953125 1.109375 -2.503906 1.109375 -3.171875 L 1.109375 -8 Z M 2.390625 -8 "/></g></g></g><g fill="#000000" fill-opacity="1"><g transform="translate(235.205373, 306.802715)"><g><path d="M 5.015625 -6.765625 C 4.691406 -6.867188 4.382812 -6.921875 4.09375 -6.921875 C 3.632812 -6.921875 3.269531 -6.796875 3 -6.546875 C 2.738281 -6.296875 2.578125 -5.976562 2.515625 -5.59375 L 2.515625 0 L 1.234375 0 L 1.234375 -8 L 2.125 -8 L 2.375 -7.03125 L 2.4375 -7.03125 C 2.632812 -7.382812 2.875 -7.660156 3.15625 -7.859375 C 3.4375 -8.054688 3.796875 -8.15625 4.234375 -8.15625 C 4.546875 -8.15625 4.894531 -8.101562 5.28125 -8 Z M 5.015625 -6.765625 "/></g></g></g><g fill="#000000" fill-opacity="1"><g transform="translate(240.644062, 306.802715)"><g><path d="M 1.109375 -7.40625 C 1.515625 -7.65625 1.984375 -7.835938 2.515625 -7.953125 C 3.054688 -8.066406 3.617188 -8.125 4.203125 -8.125 C 4.765625 -8.125 5.210938 -8.050781 5.546875 -7.90625 C 5.878906 -7.757812 6.132812 -7.5625 6.3125 -7.3125 C 6.488281 -7.070312 6.601562 -6.804688 6.65625 -6.515625 C 6.71875 -6.234375 6.75 -5.945312 6.75 -5.65625 C 6.75 -5.019531 6.734375 -4.394531 6.703125 -3.78125 C 6.671875 -3.175781 6.65625 -2.601562 6.65625 -2.0625 C 6.65625 -1.664062 6.671875 -1.289062 6.703125 -0.9375 C 6.734375 -0.59375 6.789062 -0.269531 6.875 0.03125 L 5.9375 0.03125 L 5.59375 -1.09375 L 5.515625 -1.09375 C 5.421875 -0.9375 5.300781 -0.785156 5.15625 -0.640625 C 5.007812 -0.503906 4.835938 -0.378906 4.640625 -0.265625 C 4.441406 -0.148438 4.207031 -0.0546875 3.9375 0.015625 C 3.664062 0.0859375 3.363281 0.125 3.03125 0.125 C 2.6875 0.125 2.363281 0.0703125 2.0625 -0.03125 C 1.769531 -0.132812 1.515625 -0.285156 1.296875 -0.484375 C 1.085938 -0.679688 0.921875 -0.914062 0.796875 -1.1875 C 0.679688 -1.46875 0.625 -1.785156 0.625 -2.140625 C 0.625 -2.609375 0.71875 -3 0.90625 -3.3125 C 1.101562 -3.632812 1.375 -3.890625 1.71875 -4.078125 C 2.0625 -4.265625 2.476562 -4.394531 2.96875 -4.46875 C 3.457031 -4.550781 3.992188 -4.59375 4.578125 -4.59375 C 4.722656 -4.59375 4.867188 -4.59375 5.015625 -4.59375 C 5.160156 -4.59375 5.304688 -4.582031 5.453125 -4.5625 C 5.484375 -4.882812 5.5 -5.171875 5.5 -5.421875 C 5.5 -6.003906 5.378906 -6.414062 5.140625 -6.65625 C 4.910156 -6.894531 4.488281 -7.015625 3.875 -7.015625 C 3.6875 -7.015625 3.488281 -7 3.28125 -6.96875 C 3.070312 -6.9375 2.859375 -6.894531 2.640625 -6.84375 C 2.421875 -6.800781 2.210938 -6.742188 2.015625 -6.671875 C 1.828125 -6.609375 1.65625 -6.535156 1.5 -6.453125 Z M 3.375 -0.984375 C 3.675781 -0.984375 3.941406 -1.023438 4.171875 -1.109375 C 4.410156 -1.191406 4.613281 -1.289062 4.78125 -1.40625 C 4.957031 -1.53125 5.097656 -1.664062 5.203125 -1.8125 C 5.316406 -1.96875 5.398438 -2.113281 5.453125 -2.25 L 5.453125 -3.578125 C 5.304688 -3.585938 5.15625 -3.59375 5 -3.59375 C 4.84375 -3.601562 4.691406 -3.609375 4.546875 -3.609375 C 4.210938 -3.609375 3.890625 -3.585938 3.578125 -3.546875 C 3.265625 -3.515625 2.988281 -3.445312 2.75 -3.34375 C 2.507812 -3.25 2.316406 -3.113281 2.171875 -2.9375 C 2.023438 -2.757812 1.953125 -2.535156 1.953125 -2.265625 C 1.953125 -1.898438 2.082031 -1.59375 2.34375 -1.34375 C 2.613281 -1.101562 2.957031 -0.984375 3.375 -0.984375 Z M 3.375 -0.984375 "/></g></g></g><g fill="#000000" fill-opacity="1"><g transform="translate(248.578159, 306.802715)"><g><path d="M 6.375 0 L 6.375 -4.5625 C 6.375 -5.394531 6.25 -6.019531 6 -6.4375 C 5.757812 -6.863281 5.320312 -7.078125 4.6875 -7.078125 C 4.125 -7.078125 3.65625 -6.921875 3.28125 -6.609375 C 2.914062 -6.304688 2.660156 -5.925781 2.515625 -5.46875 L 2.515625 0 L 1.234375 0 L 1.234375 -8 L 2.125 -8 L 2.375 -7.03125 L 2.4375 -7.03125 C 2.6875 -7.363281 3.023438 -7.640625 3.453125 -7.859375 C 3.890625 -8.078125 4.410156 -8.1875 5.015625 -8.1875 C 5.441406 -8.1875 5.820312 -8.132812 6.15625 -8.03125 C 6.488281 -7.9375 6.765625 -7.757812 6.984375 -7.5 C 7.203125 -7.25 7.363281 -6.90625 7.46875 -6.46875 C 7.582031 -6.039062 7.640625 -5.492188 7.640625 -4.828125 L 7.640625 0 Z M 6.375 0 "/></g></g></g><g fill="#000000" fill-opacity="1"><g transform="translate(257.328059, 306.802715)"><g><path d="M 7.375 -2.75 C 7.375 -2.207031 7.378906 -1.710938 7.390625 -1.265625 C 7.398438 -0.828125 7.445312 -0.394531 7.53125 0.03125 L 6.671875 0.03125 L 6.359375 -1.109375 L 6.28125 -1.109375 C 6.070312 -0.734375 5.765625 -0.421875 5.359375 -0.171875 C 4.953125 0.0664062 4.476562 0.1875 3.9375 0.1875 C 2.875 0.1875 2.082031 -0.144531 1.5625 -0.8125 C 1.039062 -1.488281 0.78125 -2.539062 0.78125 -3.96875 C 0.78125 -5.332031 1.101562 -6.367188 1.75 -7.078125 C 2.394531 -7.785156 3.285156 -8.140625 4.421875 -8.140625 C 4.816406 -8.140625 5.128906 -8.117188 5.359375 -8.078125 C 5.585938 -8.035156 5.832031 -7.96875 6.09375 -7.875 L 6.09375 -11.203125 L 7.375 -11.203125 Z M 4.140625 -0.921875 C 4.679688 -0.921875 5.113281 -1.0625 5.4375 -1.34375 C 5.757812 -1.632812 5.976562 -2.066406 6.09375 -2.640625 L 6.09375 -6.609375 C 5.90625 -6.753906 5.6875 -6.859375 5.4375 -6.921875 C 5.195312 -6.992188 4.875 -7.03125 4.46875 -7.03125 C 3.726562 -7.03125 3.148438 -6.785156 2.734375 -6.296875 C 2.316406 -5.804688 2.109375 -5.03125 2.109375 -3.96875 C 2.109375 -3.53125 2.140625 -3.125 2.203125 -2.75 C 2.273438 -2.375 2.390625 -2.050781 2.546875 -1.78125 C 2.710938 -1.519531 2.925781 -1.3125 3.1875 -1.15625 C 3.445312 -1 3.765625 -0.921875 4.140625 -0.921875 Z M 4.140625 -0.921875 "/></g></g></g><g fill="#000000" fill-opacity="1"><g transform="translate(265.933993, 306.802715)"><g><path d="M 0.78125 -4 C 0.78125 -5.351562 1.082031 -6.390625 1.6875 -7.109375 C 2.289062 -7.828125 3.15625 -8.1875 4.28125 -8.1875 C 4.882812 -8.1875 5.40625 -8.085938 5.84375 -7.890625 C 6.289062 -7.691406 6.65625 -7.410156 6.9375 -7.046875 C 7.226562 -6.679688 7.441406 -6.238281 7.578125 -5.71875 C 7.722656 -5.195312 7.796875 -4.625 7.796875 -4 C 7.796875 -2.644531 7.492188 -1.609375 6.890625 -0.890625 C 6.285156 -0.171875 5.414062 0.1875 4.28125 0.1875 C 3.6875 0.1875 3.164062 0.0859375 2.71875 -0.109375 C 2.28125 -0.304688 1.914062 -0.585938 1.625 -0.953125 C 1.34375 -1.316406 1.128906 -1.757812 0.984375 -2.28125 C 0.847656 -2.800781 0.78125 -3.375 0.78125 -4 Z M 2.109375 -4 C 2.109375 -3.59375 2.148438 -3.203125 2.234375 -2.828125 C 2.316406 -2.453125 2.441406 -2.125 2.609375 -1.84375 C 2.773438 -1.570312 3 -1.347656 3.28125 -1.171875 C 3.5625 -1.003906 3.894531 -0.921875 4.28125 -0.921875 C 5.738281 -0.910156 6.46875 -1.9375 6.46875 -4 C 6.46875 -4.414062 6.425781 -4.8125 6.34375 -5.1875 C 6.257812 -5.5625 6.132812 -5.882812 5.96875 -6.15625 C 5.800781 -6.4375 5.578125 -6.660156 5.296875 -6.828125 C 5.015625 -6.992188 4.675781 -7.078125 4.28125 -7.078125 C 2.832031 -7.085938 2.109375 -6.0625 2.109375 -4 Z M 2.109375 -4 "/></g></g></g><g fill="#000000" fill-opacity="1"><g transform="translate(274.507929, 306.802715)"><g/></g></g><g fill="#000000" fill-opacity="1"><g transform="translate(278.778887, 306.802715)"><g><path d="M 0.171875 -8 L 1.421875 -8 L 1.421875 -9.578125 L 2.703125 -9.953125 L 2.703125 -8 L 4.875 -8 L 4.875 -6.875 L 2.703125 -6.875 L 2.703125 -2.453125 C 2.703125 -1.890625 2.769531 -1.492188 2.90625 -1.265625 C 3.050781 -1.035156 3.285156 -0.921875 3.609375 -0.921875 C 3.890625 -0.921875 4.125 -0.953125 4.3125 -1.015625 C 4.507812 -1.078125 4.722656 -1.15625 4.953125 -1.25 L 5.25 -0.265625 C 4.957031 -0.128906 4.640625 -0.0195312 4.296875 0.0625 C 3.960938 0.144531 3.597656 0.1875 3.203125 0.1875 C 2.546875 0.1875 2.082031 0.00390625 1.8125 -0.359375 C 1.550781 -0.722656 1.421875 -1.335938 1.421875 -2.203125 L 1.421875 -6.875 L 0.171875 -6.875 Z M 0.171875 -8 "/></g></g></g><g fill="#000000" fill-opacity="1"><g transform="translate(284.201601, 306.802715)"><g><path d="M 2.390625 -8 L 2.390625 -3.4375 C 2.390625 -3.019531 2.410156 -2.65625 2.453125 -2.34375 C 2.503906 -2.03125 2.585938 -1.769531 2.703125 -1.5625 C 2.816406 -1.351562 2.972656 -1.191406 3.171875 -1.078125 C 3.378906 -0.972656 3.640625 -0.921875 3.953125 -0.921875 C 4.242188 -0.921875 4.5 -0.96875 4.71875 -1.0625 C 4.945312 -1.15625 5.144531 -1.28125 5.3125 -1.4375 C 5.488281 -1.601562 5.644531 -1.785156 5.78125 -1.984375 C 5.914062 -2.191406 6.023438 -2.414062 6.109375 -2.65625 L 6.109375 -8 L 7.390625 -8 L 7.390625 -2.265625 C 7.390625 -1.890625 7.398438 -1.492188 7.421875 -1.078125 C 7.453125 -0.671875 7.5 -0.3125 7.5625 0 L 6.6875 0 L 6.375 -1.265625 L 6.28125 -1.265625 C 6.039062 -0.847656 5.710938 -0.5 5.296875 -0.21875 C 4.878906 0.0507812 4.351562 0.1875 3.71875 0.1875 C 3.289062 0.1875 2.910156 0.132812 2.578125 0.03125 C 2.253906 -0.0625 1.984375 -0.234375 1.765625 -0.484375 C 1.546875 -0.742188 1.378906 -1.085938 1.265625 -1.515625 C 1.160156 -1.953125 1.109375 -2.503906 1.109375 -3.171875 L 1.109375 -8 Z M 2.390625 -8 "/></g></g></g><g fill="#000000" fill-opacity="1"><g transform="translate(292.823533, 306.802715)"><g/></g></g><g fill="#000000" fill-opacity="1"><g transform="translate(297.094513, 306.802715)"><g><path d="M 0.359375 -8 L 1.59375 -8 L 1.59375 -8.453125 C 1.59375 -8.941406 1.632812 -9.363281 1.71875 -9.71875 C 1.800781 -10.082031 1.929688 -10.378906 2.109375 -10.609375 C 2.296875 -10.835938 2.53125 -11.007812 2.8125 -11.125 C 3.101562 -11.238281 3.460938 -11.296875 3.890625 -11.296875 C 4.234375 -11.296875 4.535156 -11.273438 4.796875 -11.234375 C 5.054688 -11.191406 5.328125 -11.109375 5.609375 -10.984375 L 5.328125 -9.921875 C 5.078125 -10.023438 4.84375 -10.09375 4.625 -10.125 C 4.40625 -10.15625 4.203125 -10.171875 4.015625 -10.171875 C 3.734375 -10.171875 3.515625 -10.128906 3.359375 -10.046875 C 3.210938 -9.960938 3.101562 -9.835938 3.03125 -9.671875 C 2.957031 -9.503906 2.910156 -9.300781 2.890625 -9.0625 C 2.878906 -8.820312 2.875 -8.539062 2.875 -8.21875 L 2.875 -8 L 5.015625 -8 L 5.015625 -6.875 L 2.875 -6.875 L 2.875 0 L 1.59375 0 L 1.59375 -6.875 L 0.359375 -6.875 Z M 0.359375 -8 "/></g></g></g><g fill="#000000" fill-opacity="1"><g transform="translate(302.197296, 306.802715)"><g><path d="M 2.390625 -8 L 2.390625 -3.4375 C 2.390625 -3.019531 2.410156 -2.65625 2.453125 -2.34375 C 2.503906 -2.03125 2.585938 -1.769531 2.703125 -1.5625 C 2.816406 -1.351562 2.972656 -1.191406 3.171875 -1.078125 C 3.378906 -0.972656 3.640625 -0.921875 3.953125 -0.921875 C 4.242188 -0.921875 4.5 -0.96875 4.71875 -1.0625 C 4.945312 -1.15625 5.144531 -1.28125 5.3125 -1.4375 C 5.488281 -1.601562 5.644531 -1.785156 5.78125 -1.984375 C 5.914062 -2.191406 6.023438 -2.414062 6.109375 -2.65625 L 6.109375 -8 L 7.390625 -8 L 7.390625 -2.265625 C 7.390625 -1.890625 7.398438 -1.492188 7.421875 -1.078125 C 7.453125 -0.671875 7.5 -0.3125 7.5625 0 L 6.6875 0 L 6.375 -1.265625 L 6.28125 -1.265625 C 6.039062 -0.847656 5.710938 -0.5 5.296875 -0.21875 C 4.878906 0.0507812 4.351562 0.1875 3.71875 0.1875 C 3.289062 0.1875 2.910156 0.132812 2.578125 0.03125 C 2.253906 -0.0625 1.984375 -0.234375 1.765625 -0.484375 C 1.546875 -0.742188 1.378906 -1.085938 1.265625 -1.515625 C 1.160156 -1.953125 1.109375 -2.503906 1.109375 -3.171875 L 1.109375 -8 Z M 2.390625 -8 "/></g></g></g><g fill="#000000" fill-opacity="1"><g transform="translate(310.819229, 306.802715)"><g><path d="M 0.171875 -8 L 1.421875 -8 L 1.421875 -9.578125 L 2.703125 -9.953125 L 2.703125 -8 L 4.875 -8 L 4.875 -6.875 L 2.703125 -6.875 L 2.703125 -2.453125 C 2.703125 -1.890625 2.769531 -1.492188 2.90625 -1.265625 C 3.050781 -1.035156 3.285156 -0.921875 3.609375 -0.921875 C 3.890625 -0.921875 4.125 -0.953125 4.3125 -1.015625 C 4.507812 -1.078125 4.722656 -1.15625 4.953125 -1.25 L 5.25 -0.265625 C 4.957031 -0.128906 4.640625 -0.0195312 4.296875 0.0625 C 3.960938 0.144531 3.597656 0.1875 3.203125 0.1875 C 2.546875 0.1875 2.082031 0.00390625 1.8125 -0.359375 C 1.550781 -0.722656 1.421875 -1.335938 1.421875 -2.203125 L 1.421875 -6.875 L 0.171875 -6.875 Z M 0.171875 -8 "/></g></g></g><g fill="#000000" fill-opacity="1"><g transform="translate(316.241943, 306.802715)"><g><path d="M 2.390625 -8 L 2.390625 -3.4375 C 2.390625 -3.019531 2.410156 -2.65625 2.453125 -2.34375 C 2.503906 -2.03125 2.585938 -1.769531 2.703125 -1.5625 C 2.816406 -1.351562 2.972656 -1.191406 3.171875 -1.078125 C 3.378906 -0.972656 3.640625 -0.921875 3.953125 -0.921875 C 4.242188 -0.921875 4.5 -0.96875 4.71875 -1.0625 C 4.945312 -1.15625 5.144531 -1.28125 5.3125 -1.4375 C 5.488281 -1.601562 5.644531 -1.785156 5.78125 -1.984375 C 5.914062 -2.191406 6.023438 -2.414062 6.109375 -2.65625 L 6.109375 -8 L 7.390625 -8 L 7.390625 -2.265625 C 7.390625 -1.890625 7.398438 -1.492188 7.421875 -1.078125 C 7.453125 -0.671875 7.5 -0.3125 7.5625 0 L 6.6875 0 L 6.375 -1.265625 L 6.28125 -1.265625 C 6.039062 -0.847656 5.710938 -0.5 5.296875 -0.21875 C 4.878906 0.0507812 4.351562 0.1875 3.71875 0.1875 C 3.289062 0.1875 2.910156 0.132812 2.578125 0.03125 C 2.253906 -0.0625 1.984375 -0.234375 1.765625 -0.484375 C 1.546875 -0.742188 1.378906 -1.085938 1.265625 -1.515625 C 1.160156 -1.953125 1.109375 -2.503906 1.109375 -3.171875 L 1.109375 -8 Z M 2.390625 -8 "/></g></g></g><g fill="#000000" fill-opacity="1"><g transform="translate(324.863875, 306.802715)"><g><path d="M 5.015625 -6.765625 C 4.691406 -6.867188 4.382812 -6.921875 4.09375 -6.921875 C 3.632812 -6.921875 3.269531 -6.796875 3 -6.546875 C 2.738281 -6.296875 2.578125 -5.976562 2.515625 -5.59375 L 2.515625 0 L 1.234375 0 L 1.234375 -8 L 2.125 -8 L 2.375 -7.03125 L 2.4375 -7.03125 C 2.632812 -7.382812 2.875 -7.660156 3.15625 -7.859375 C 3.4375 -8.054688 3.796875 -8.15625 4.234375 -8.15625 C 4.546875 -8.15625 4.894531 -8.101562 5.28125 -8 Z M 5.015625 -6.765625 "/></g></g></g><g fill="#000000" fill-opacity="1"><g transform="translate(330.302565, 306.802715)"><g><path d="M 0.78125 -4 C 0.78125 -5.351562 1.082031 -6.390625 1.6875 -7.109375 C 2.289062 -7.828125 3.15625 -8.1875 4.28125 -8.1875 C 4.882812 -8.1875 5.40625 -8.085938 5.84375 -7.890625 C 6.289062 -7.691406 6.65625 -7.410156 6.9375 -7.046875 C 7.226562 -6.679688 7.441406 -6.238281 7.578125 -5.71875 C 7.722656 -5.195312 7.796875 -4.625 7.796875 -4 C 7.796875 -2.644531 7.492188 -1.609375 6.890625 -0.890625 C 6.285156 -0.171875 5.414062 0.1875 4.28125 0.1875 C 3.6875 0.1875 3.164062 0.0859375 2.71875 -0.109375 C 2.28125 -0.304688 1.914062 -0.585938 1.625 -0.953125 C 1.34375 -1.316406 1.128906 -1.757812 0.984375 -2.28125 C 0.847656 -2.800781 0.78125 -3.375 0.78125 -4 Z M 2.109375 -4 C 2.109375 -3.59375 2.148438 -3.203125 2.234375 -2.828125 C 2.316406 -2.453125 2.441406 -2.125 2.609375 -1.84375 C 2.773438 -1.570312 3 -1.347656 3.28125 -1.171875 C 3.5625 -1.003906 3.894531 -0.921875 4.28125 -0.921875 C 5.738281 -0.910156 6.46875 -1.9375 6.46875 -4 C 6.46875 -4.414062 6.425781 -4.8125 6.34375 -5.1875 C 6.257812 -5.5625 6.132812 -5.882812 5.96875 -6.15625 C 5.800781 -6.4375 5.578125 -6.660156 5.296875 -6.828125 C 5.015625 -6.992188 4.675781 -7.078125 4.28125 -7.078125 C 2.832031 -7.085938 2.109375 -6.0625 2.109375 -4 Z M 2.109375 -4 "/></g></g></g></svg>