<svg xmlns="http://www.w3.org/2000/svg" xmlns:xlink="http://www.w3.org/1999/xlink" width="1000" zoomAndPan="magnify" viewBox="0 0 750 374.999991" height="500" preserveAspectRatio="xMidYMid meet" version="1.0"><defs><g/><clipPath id="d31dc2e87a"><path d="M 33.53125 54.539062 L 299.78125 54.539062 L 299.78125 320.789062 L 33.53125 320.789062 Z M 33.53125 54.539062 " clip-rule="nonzero"/></clipPath></defs><rect x="-75" width="900" fill="#ffffff" y="-37.499999" height="449.999989" fill-opacity="1"/><rect x="-75" width="900" fill="#ffffff" y="-37.499999" height="449.999989" fill-opacity="1"/><g clip-path="url(#d31dc2e87a)"><path fill="#000000" d="M 299.78125 187.664062 C 299.78125 189.84375 299.726562 192.019531 299.621094 194.199219 C 299.511719 196.375 299.351562 198.546875 299.140625 200.714844 C 298.925781 202.882812 298.660156 205.042969 298.339844 207.199219 C 298.019531 209.355469 297.648438 211.5 297.222656 213.636719 C 296.796875 215.773438 296.320312 217.898438 295.789062 220.011719 C 295.261719 222.125 294.679688 224.222656 294.046875 226.308594 C 293.414062 228.394531 292.730469 230.460938 291.996094 232.511719 C 291.265625 234.566406 290.480469 236.597656 289.644531 238.609375 C 288.8125 240.621094 287.929688 242.613281 287 244.582031 C 286.066406 246.554688 285.085938 248.5 284.058594 250.417969 C 283.035156 252.339844 281.960938 254.238281 280.839844 256.105469 C 279.71875 257.972656 278.554688 259.8125 277.34375 261.625 C 276.132812 263.4375 274.878906 265.21875 273.582031 266.96875 C 272.285156 268.71875 270.945312 270.433594 269.5625 272.117188 C 268.179688 273.804688 266.757812 275.453125 265.292969 277.066406 C 263.832031 278.679688 262.328125 280.257812 260.789062 281.796875 C 259.246094 283.339844 257.671875 284.839844 256.054688 286.304688 C 254.441406 287.765625 252.792969 289.191406 251.109375 290.570312 C 249.425781 291.953125 247.707031 293.292969 245.957031 294.59375 C 244.207031 295.890625 242.425781 297.144531 240.613281 298.355469 C 238.804688 299.566406 236.964844 300.730469 235.09375 301.851562 C 233.226562 302.96875 231.332031 304.042969 229.410156 305.070312 C 227.488281 306.097656 225.542969 307.078125 223.574219 308.007812 C 221.601562 308.941406 219.613281 309.824219 217.597656 310.65625 C 215.585938 311.492188 213.554688 312.273438 211.503906 313.007812 C 209.453125 313.742188 207.382812 314.425781 205.300781 315.058594 C 203.214844 315.691406 201.113281 316.269531 199 316.800781 C 196.886719 317.328125 194.761719 317.808594 192.625 318.230469 C 190.488281 318.65625 188.34375 319.03125 186.1875 319.347656 C 184.03125 319.667969 181.871094 319.9375 179.703125 320.148438 C 177.535156 320.363281 175.363281 320.523438 173.1875 320.628906 C 171.011719 320.738281 168.832031 320.789062 166.65625 320.789062 C 164.476562 320.789062 162.296875 320.738281 160.121094 320.628906 C 157.945312 320.523438 155.773438 320.363281 153.605469 320.148438 C 151.4375 319.9375 149.277344 319.667969 147.121094 319.347656 C 144.964844 319.03125 142.820312 318.65625 140.683594 318.230469 C 138.546875 317.808594 136.421875 317.328125 134.308594 316.800781 C 132.195312 316.269531 130.09375 315.691406 128.011719 315.058594 C 125.925781 314.425781 123.859375 313.742188 121.804688 313.007812 C 119.753906 312.273438 117.722656 311.492188 115.710938 310.65625 C 113.695312 309.824219 111.707031 308.941406 109.738281 308.007812 C 107.765625 307.078125 105.820312 306.097656 103.898438 305.070312 C 101.980469 304.042969 100.082031 302.96875 98.214844 301.851562 C 96.347656 300.730469 94.507812 299.566406 92.695312 298.355469 C 90.882812 297.144531 89.101562 295.890625 87.351562 294.59375 C 85.601562 293.292969 83.886719 291.953125 82.199219 290.570312 C 80.515625 289.191406 78.867188 287.765625 77.253906 286.304688 C 75.640625 284.839844 74.0625 283.339844 72.519531 281.796875 C 70.980469 280.257812 69.480469 278.679688 68.015625 277.066406 C 66.550781 275.453125 65.128906 273.804688 63.746094 272.117188 C 62.367188 270.433594 61.027344 268.71875 59.726562 266.96875 C 58.429688 265.21875 57.175781 263.4375 55.964844 261.625 C 54.753906 259.8125 53.589844 257.972656 52.46875 256.105469 C 51.347656 254.238281 50.277344 252.339844 49.25 250.417969 C 48.222656 248.5 47.242188 246.554688 46.3125 244.582031 C 45.378906 242.613281 44.496094 240.621094 43.664062 238.609375 C 42.828125 236.597656 42.046875 234.566406 41.3125 232.511719 C 40.578125 230.460938 39.894531 228.394531 39.261719 226.308594 C 38.628906 224.222656 38.046875 222.125 37.519531 220.011719 C 36.988281 217.898438 36.511719 215.773438 36.085938 213.636719 C 35.664062 211.5 35.289062 209.355469 34.96875 207.199219 C 34.652344 205.042969 34.382812 202.882812 34.171875 200.714844 C 33.957031 198.546875 33.796875 196.375 33.691406 194.199219 C 33.582031 192.019531 33.53125 189.84375 33.53125 187.664062 C 33.53125 185.488281 33.582031 183.308594 33.691406 181.132812 C 33.796875 178.957031 33.957031 176.785156 34.171875 174.617188 C 34.382812 172.449219 34.652344 170.285156 34.96875 168.132812 C 35.289062 165.976562 35.664062 163.832031 36.085938 161.695312 C 36.511719 159.558594 36.988281 157.433594 37.519531 155.320312 C 38.046875 153.203125 38.628906 151.105469 39.261719 149.019531 C 39.894531 146.9375 40.578125 144.867188 41.3125 142.816406 C 42.046875 140.765625 42.828125 138.734375 43.664062 136.71875 C 44.496094 134.707031 45.378906 132.714844 46.3125 130.746094 C 47.242188 128.777344 48.222656 126.832031 49.25 124.910156 C 50.277344 122.988281 51.347656 121.09375 52.46875 119.226562 C 53.589844 117.355469 54.753906 115.515625 55.964844 113.703125 C 57.175781 111.894531 58.429688 110.113281 59.726562 108.363281 C 61.027344 106.613281 62.367188 104.894531 63.746094 103.210938 C 65.128906 101.527344 66.550781 99.878906 68.015625 98.265625 C 69.480469 96.648438 70.980469 95.070312 72.519531 93.53125 C 74.0625 91.992188 75.640625 90.488281 77.253906 89.027344 C 78.867188 87.5625 80.515625 86.140625 82.199219 84.757812 C 83.886719 83.375 85.601562 82.035156 87.351562 80.738281 C 89.101562 79.441406 90.882812 78.1875 92.695312 76.976562 C 94.507812 75.765625 96.347656 74.601562 98.214844 73.480469 C 100.082031 72.359375 101.980469 71.285156 103.898438 70.257812 C 105.820312 69.230469 107.765625 68.253906 109.738281 67.320312 C 111.707031 66.390625 113.695312 65.507812 115.710938 64.671875 C 117.722656 63.839844 119.753906 63.054688 121.804688 62.320312 C 123.859375 61.589844 125.925781 60.90625 128.011719 60.273438 C 130.09375 59.640625 132.195312 59.058594 134.308594 58.53125 C 136.421875 58 138.546875 57.523438 140.683594 57.097656 C 142.820312 56.671875 144.964844 56.300781 147.121094 55.980469 C 149.277344 55.660156 151.4375 55.394531 153.605469 55.179688 C 155.773438 54.96875 157.945312 54.808594 160.121094 54.699219 C 162.296875 54.59375 164.476562 54.539062 166.65625 54.539062 C 168.832031 54.539062 171.011719 54.59375 173.1875 54.699219 C 175.363281 54.808594 177.535156 54.96875 179.703125 55.179688 C 181.871094 55.394531 184.03125 55.660156 186.1875 55.980469 C 188.34375 56.300781 190.488281 56.671875 192.625 57.097656 C 194.761719 57.523438 196.886719 58 199 58.53125 C 201.113281 59.058594 203.214844 59.640625 205.300781 60.273438 C 207.382812 60.90625 209.453125 61.589844 211.503906 62.320312 C 213.554688 63.054688 215.585938 63.839844 217.597656 64.671875 C 219.613281 65.507812 221.601562 66.390625 223.574219 67.320312 C 225.542969 68.253906 227.488281 69.230469 229.410156 70.257812 C 231.332031 71.285156 233.226562 72.359375 235.09375 73.480469 C 236.964844 74.601562 238.804688 75.765625 240.613281 76.976562 C 242.425781 78.1875 244.207031 79.441406 245.957031 80.738281 C 247.707031 82.035156 249.425781 83.375 251.109375 84.757812 C 252.792969 86.140625 254.441406 87.5625 256.054688 89.027344 C 257.671875 90.488281 259.246094 91.992188 260.789062 93.53125 C 262.328125 95.070312 263.832031 96.648438 265.292969 98.265625 C 266.757812 99.878906 268.179688 101.527344 269.5625 103.210938 C 270.945312 104.894531 272.285156 106.613281 273.582031 108.363281 C 274.878906 110.113281 276.132812 111.894531 277.34375 113.703125 C 278.554688 115.515625 279.71875 117.355469 280.839844 119.226562 C 281.960938 121.09375 283.035156 122.988281 284.058594 124.910156 C 285.085938 126.832031 286.066406 128.777344 287 130.746094 C 287.929688 132.714844 288.8125 134.707031 289.644531 136.71875 C 290.480469 138.734375 291.265625 140.765625 291.996094 142.816406 C 292.730469 144.867188 293.414062 146.9375 294.046875 149.019531 C 294.679688 151.105469 295.261719 153.203125 295.789062 155.320312 C 296.320312 157.433594 296.796875 159.558594 297.222656 161.695312 C 297.648438 163.832031 298.019531 165.976562 298.339844 168.132812 C 298.660156 170.285156 298.925781 172.449219 299.140625 174.617188 C 299.351562 176.785156 299.511719 178.957031 299.621094 181.132812 C 299.726562 183.308594 299.78125 185.488281 299.78125 187.664062 Z M 299.78125 187.664062 " fill-opacity="1" fill-rule="nonzero"/></g><path fill="#ffffff" d="M 109.410156 205.503906 L 109.410156 213.96875 C 141.042969 225.367188 175.652344 225.367188 207.285156 213.96875 L 207.285156 205.503906 C 191.574219 210.988281 175.015625 213.8125 158.347656 213.8125 C 141.679688 213.8125 125.121094 211.042969 109.410156 205.503906 Z M 109.410156 205.503906 " fill-opacity="1" fill-rule="nonzero"/><path fill="#ffffff" d="M 207.230469 160.828125 L 158.988281 179.570312 C 158.71875 179.675781 158.453125 179.730469 158.132812 179.730469 C 157.921875 179.730469 157.65625 179.675781 157.441406 179.570312 L 109.359375 160.828125 L 109.359375 187.929688 C 140.988281 199.328125 175.601562 199.328125 207.230469 187.929688 Z M 207.230469 160.828125 " fill-opacity="1" fill-rule="nonzero"/><path fill="#ffffff" d="M 207.230469 192.191406 C 191.523438 197.675781 174.960938 200.5 158.292969 200.5 C 141.628906 200.5 125.121094 197.675781 109.359375 192.191406 L 109.359375 201.242188 C 140.988281 212.640625 175.601562 212.640625 207.230469 201.242188 Z M 207.230469 192.191406 " fill-opacity="1" fill-rule="nonzero"/><path fill="#ffffff" d="M 208.136719 156.140625 C 208.242188 156.089844 208.402344 156.035156 208.5625 155.980469 L 227.839844 148.472656 L 158.242188 122.914062 L 88.644531 148.472656 L 107.921875 155.980469 C 108.078125 156.035156 108.1875 156.089844 108.347656 156.140625 L 158.242188 175.578125 Z M 208.136719 156.140625 " fill-opacity="1" fill-rule="nonzero"/><path fill="#ffffff" d="M 235.292969 184.738281 C 235.1875 184.46875 235.027344 184.257812 234.816406 184.042969 C 240.460938 183.40625 244.71875 178.613281 244.773438 172.914062 C 244.824219 167.484375 240.886719 162.796875 235.558594 161.890625 L 235.558594 149.058594 C 235.558594 147.941406 234.65625 147.035156 233.535156 147.035156 C 232.417969 147.035156 231.511719 147.941406 231.511719 149.058594 L 231.511719 161.945312 C 226.507812 162.902344 222.355469 167.484375 222.355469 172.914062 C 222.355469 178.507812 226.507812 183.246094 232.046875 183.992188 C 231.832031 184.203125 231.671875 184.417969 231.566406 184.683594 L 226.507812 196.824219 C 225.175781 200.074219 224.484375 203.535156 224.539062 207.046875 L 224.539062 250.339844 C 224.539062 251.457031 225.175781 252.628906 226.292969 252.628906 L 240.191406 252.628906 C 241.3125 252.628906 242.164062 251.457031 242.164062 250.339844 L 242.164062 206.835938 C 242.164062 203.480469 241.523438 200.125 240.246094 197.039062 Z M 235.292969 184.738281 " fill-opacity="1" fill-rule="nonzero"/><g fill="#000000" fill-opacity="1"><g transform="translate(364.464366, 164.494748)"><g><path d="M 3.65625 -34.625 L 10.4375 -34.625 L 10.4375 0 L 3.65625 0 Z M 3.65625 -34.625 "/></g></g></g><g fill="#000000" fill-opacity="1"><g transform="translate(378.562166, 164.494748)"><g><path d="M 17.953125 0 L 17.953125 -14.046875 C 17.953125 -16.054688 17.660156 -17.503906 17.078125 -18.390625 C 16.503906 -19.285156 15.523438 -19.734375 14.140625 -19.734375 C 12.921875 -19.734375 11.890625 -19.378906 11.046875 -18.671875 C 10.210938 -17.960938 9.613281 -17.082031 9.25 -16.03125 L 9.25 0 L 2.8125 0 L 2.8125 -24.734375 L 7.921875 -24.734375 L 8.65625 -21.46875 L 8.859375 -21.46875 C 9.617188 -22.519531 10.625 -23.441406 11.875 -24.234375 C 13.125 -25.023438 14.738281 -25.421875 16.71875 -25.421875 C 17.9375 -25.421875 19.023438 -25.253906 19.984375 -24.921875 C 20.941406 -24.597656 21.75 -24.054688 22.40625 -23.296875 C 23.070312 -22.535156 23.566406 -21.503906 23.890625 -20.203125 C 24.222656 -18.898438 24.390625 -17.296875 24.390625 -15.390625 L 24.390625 0 Z M 17.953125 0 "/></g></g></g><g fill="#000000" fill-opacity="1"><g transform="translate(405.521127, 164.494748)"><g><path d="M 0.25 -24.734375 L 3.65625 -24.734375 L 3.65625 -29.390625 L 10.09375 -31.21875 L 10.09375 -24.734375 L 16.125 -24.734375 L 16.125 -19.296875 L 10.09375 -19.296875 L 10.09375 -9.796875 C 10.09375 -8.078125 10.265625 -6.847656 10.609375 -6.109375 C 10.953125 -5.367188 11.601562 -5 12.5625 -5 C 13.21875 -5 13.785156 -5.0625 14.265625 -5.1875 C 14.742188 -5.320312 15.28125 -5.519531 15.875 -5.78125 L 17.015625 -0.84375 C 16.128906 -0.414062 15.09375 -0.0546875 13.90625 0.234375 C 12.71875 0.535156 11.515625 0.6875 10.296875 0.6875 C 8.015625 0.6875 6.335938 0.101562 5.265625 -1.0625 C 4.191406 -2.226562 3.65625 -4.148438 3.65625 -6.828125 L 3.65625 -19.296875 L 0.25 -19.296875 Z M 0.25 -24.734375 "/></g></g></g><g fill="#000000" fill-opacity="1"><g transform="translate(422.78475, 164.494748)"><g><path d="M 22.609375 -2.125 C 21.617188 -1.332031 20.273438 -0.664062 18.578125 -0.125 C 16.878906 0.414062 15.070312 0.6875 13.15625 0.6875 C 9.164062 0.6875 6.242188 -0.472656 4.390625 -2.796875 C 2.546875 -5.117188 1.625 -8.3125 1.625 -12.375 C 1.625 -16.71875 2.660156 -19.976562 4.734375 -22.15625 C 6.816406 -24.332031 9.738281 -25.421875 13.5 -25.421875 C 14.757812 -25.421875 15.984375 -25.253906 17.171875 -24.921875 C 18.359375 -24.597656 19.410156 -24.054688 20.328125 -23.296875 C 21.253906 -22.535156 22 -21.507812 22.5625 -20.21875 C 23.125 -18.9375 23.40625 -17.34375 23.40625 -15.4375 C 23.40625 -14.738281 23.363281 -13.992188 23.28125 -13.203125 C 23.195312 -12.410156 23.070312 -11.585938 22.90625 -10.734375 L 8.0625 -10.734375 C 8.164062 -8.660156 8.703125 -7.09375 9.671875 -6.03125 C 10.640625 -4.976562 12.210938 -4.453125 14.390625 -4.453125 C 15.742188 -4.453125 16.957031 -4.65625 18.03125 -5.0625 C 19.101562 -5.476562 19.921875 -5.898438 20.484375 -6.328125 Z M 13.40625 -20.28125 C 11.726562 -20.28125 10.484375 -19.773438 9.671875 -18.765625 C 8.859375 -17.765625 8.375 -16.421875 8.21875 -14.734375 L 17.40625 -14.734375 C 17.539062 -16.515625 17.269531 -17.882812 16.59375 -18.84375 C 15.914062 -19.800781 14.851562 -20.28125 13.40625 -20.28125 Z M 13.40625 -20.28125 "/></g></g></g><g fill="#000000" fill-opacity="1"><g transform="translate(447.913462, 164.494748)"><g><path d="M 9.453125 -8.3125 C 9.453125 -7.15625 9.597656 -6.3125 9.890625 -5.78125 C 10.191406 -5.257812 10.671875 -5 11.328125 -5 C 11.722656 -5 12.109375 -5.03125 12.484375 -5.09375 C 12.867188 -5.15625 13.34375 -5.304688 13.90625 -5.546875 L 14.59375 -0.5 C 14.0625 -0.226562 13.25 0.0351562 12.15625 0.296875 C 11.070312 0.554688 9.957031 0.6875 8.8125 0.6875 C 6.925781 0.6875 5.488281 0.253906 4.5 -0.609375 C 3.507812 -1.484375 3.015625 -2.929688 3.015625 -4.953125 L 3.015625 -34.625 L 9.453125 -34.625 Z M 9.453125 -8.3125 "/></g></g></g><g fill="#000000" fill-opacity="1"><g transform="translate(462.456454, 164.494748)"><g><path d="M 9.453125 -8.3125 C 9.453125 -7.15625 9.597656 -6.3125 9.890625 -5.78125 C 10.191406 -5.257812 10.671875 -5 11.328125 -5 C 11.722656 -5 12.109375 -5.03125 12.484375 -5.09375 C 12.867188 -5.15625 13.34375 -5.304688 13.90625 -5.546875 L 14.59375 -0.5 C 14.0625 -0.226562 13.25 0.0351562 12.15625 0.296875 C 11.070312 0.554688 9.957031 0.6875 8.8125 0.6875 C 6.925781 0.6875 5.488281 0.253906 4.5 -0.609375 C 3.507812 -1.484375 3.015625 -2.929688 3.015625 -4.953125 L 3.015625 -34.625 L 9.453125 -34.625 Z M 9.453125 -8.3125 "/></g></g></g><g fill="#000000" fill-opacity="1"><g transform="translate(476.999446, 164.494748)"><g><path d="M 3.375 -24.734375 L 9.796875 -24.734375 L 9.796875 0 L 3.375 0 Z M 2.421875 -31.703125 C 2.421875 -32.660156 2.773438 -33.476562 3.484375 -34.15625 C 4.191406 -34.832031 5.171875 -35.171875 6.421875 -35.171875 C 7.679688 -35.171875 8.695312 -34.832031 9.46875 -34.15625 C 10.25 -33.476562 10.640625 -32.660156 10.640625 -31.703125 C 10.640625 -30.753906 10.25 -29.957031 9.46875 -29.3125 C 8.695312 -28.664062 7.679688 -28.34375 6.421875 -28.34375 C 5.171875 -28.34375 4.191406 -28.664062 3.484375 -29.3125 C 2.773438 -29.957031 2.421875 -30.753906 2.421875 -31.703125 Z M 2.421875 -31.703125 "/></g></g></g><g fill="#000000" fill-opacity="1"><g transform="translate(490.305797, 164.494748)"><g><path d="M 26.421875 -1.4375 C 25.359375 -0.675781 24.007812 -0.132812 22.375 0.1875 C 20.75 0.519531 19.078125 0.6875 17.359375 0.6875 C 15.285156 0.6875 13.316406 0.367188 11.453125 -0.265625 C 9.585938 -0.910156 7.945312 -1.953125 6.53125 -3.390625 C 5.113281 -4.828125 3.984375 -6.691406 3.140625 -8.984375 C 2.296875 -11.273438 1.875 -14.050781 1.875 -17.3125 C 1.875 -20.707031 2.34375 -23.550781 3.28125 -25.84375 C 4.226562 -28.132812 5.453125 -29.976562 6.953125 -31.375 C 8.453125 -32.78125 10.125 -33.789062 11.96875 -34.40625 C 13.8125 -35.019531 15.660156 -35.328125 17.515625 -35.328125 C 19.492188 -35.328125 21.164062 -35.191406 22.53125 -34.921875 C 23.90625 -34.660156 25.035156 -34.347656 25.921875 -33.984375 L 24.59375 -28.25 C 23.832031 -28.613281 22.929688 -28.875 21.890625 -29.03125 C 20.847656 -29.195312 19.585938 -29.28125 18.109375 -29.28125 C 15.367188 -29.28125 13.164062 -28.304688 11.5 -26.359375 C 9.832031 -24.421875 9 -21.40625 9 -17.3125 C 9 -15.53125 9.195312 -13.90625 9.59375 -12.4375 C 9.988281 -10.96875 10.585938 -9.710938 11.390625 -8.671875 C 12.203125 -7.640625 13.207031 -6.832031 14.40625 -6.25 C 15.613281 -5.675781 17.007812 -5.390625 18.59375 -5.390625 C 20.082031 -5.390625 21.335938 -5.535156 22.359375 -5.828125 C 23.378906 -6.128906 24.269531 -6.507812 25.03125 -6.96875 Z M 26.421875 -1.4375 "/></g></g></g><g fill="#000000" fill-opacity="1"><g transform="translate(517.957286, 164.494748)"><g><path d="M 2.671875 -23.296875 C 3.992188 -23.890625 5.5625 -24.359375 7.375 -24.703125 C 9.1875 -25.054688 11.082031 -25.234375 13.0625 -25.234375 C 14.769531 -25.234375 16.203125 -25.023438 17.359375 -24.609375 C 18.515625 -24.203125 19.429688 -23.617188 20.109375 -22.859375 C 20.785156 -22.097656 21.265625 -21.1875 21.546875 -20.125 C 21.828125 -19.070312 21.96875 -17.890625 21.96875 -16.578125 C 21.96875 -15.117188 21.914062 -13.65625 21.8125 -12.1875 C 21.71875 -10.726562 21.660156 -9.285156 21.640625 -7.859375 C 21.628906 -6.441406 21.671875 -5.066406 21.765625 -3.734375 C 21.867188 -2.398438 22.117188 -1.140625 22.515625 0.046875 L 17.265625 0.046875 L 16.21875 -3.359375 L 15.984375 -3.359375 C 15.316406 -2.335938 14.398438 -1.457031 13.234375 -0.71875 C 12.066406 0.0195312 10.554688 0.390625 8.703125 0.390625 C 7.546875 0.390625 6.503906 0.21875 5.578125 -0.125 C 4.660156 -0.46875 3.867188 -0.960938 3.203125 -1.609375 C 2.546875 -2.253906 2.035156 -3.007812 1.671875 -3.875 C 1.316406 -4.75 1.140625 -5.734375 1.140625 -6.828125 C 1.140625 -8.347656 1.476562 -9.625 2.15625 -10.65625 C 2.832031 -11.695312 3.800781 -12.535156 5.0625 -13.171875 C 6.332031 -13.816406 7.847656 -14.265625 9.609375 -14.515625 C 11.378906 -14.765625 13.351562 -14.835938 15.53125 -14.734375 C 15.757812 -16.585938 15.625 -17.914062 15.125 -18.71875 C 14.632812 -19.53125 13.535156 -19.9375 11.828125 -19.9375 C 10.535156 -19.9375 9.171875 -19.800781 7.734375 -19.53125 C 6.304688 -19.269531 5.128906 -18.925781 4.203125 -18.5 Z M 10.828125 -4.890625 C 12.117188 -4.890625 13.140625 -5.175781 13.890625 -5.75 C 14.648438 -6.332031 15.210938 -6.957031 15.578125 -7.625 L 15.578125 -10.828125 C 14.554688 -10.929688 13.578125 -10.945312 12.640625 -10.875 C 11.703125 -10.8125 10.867188 -10.664062 10.140625 -10.4375 C 9.410156 -10.207031 8.832031 -9.878906 8.40625 -9.453125 C 7.976562 -9.023438 7.765625 -8.476562 7.765625 -7.8125 C 7.765625 -6.894531 8.035156 -6.175781 8.578125 -5.65625 C 9.128906 -5.144531 9.878906 -4.890625 10.828125 -4.890625 Z M 10.828125 -4.890625 "/></g></g></g><g fill="#000000" fill-opacity="1"><g transform="translate(542.492419, 164.494748)"><g><path d="M 16.875 0 L 16.875 -13.453125 C 16.875 -15.734375 16.65625 -17.347656 16.21875 -18.296875 C 15.789062 -19.253906 14.898438 -19.734375 13.546875 -19.734375 C 12.429688 -19.734375 11.523438 -19.425781 10.828125 -18.8125 C 10.140625 -18.207031 9.613281 -17.425781 9.25 -16.46875 L 9.25 0 L 2.8125 0 L 2.8125 -24.734375 L 7.8125 -24.734375 L 8.5625 -21.46875 L 8.75 -21.46875 C 9.507812 -22.519531 10.472656 -23.441406 11.640625 -24.234375 C 12.816406 -25.023438 14.328125 -25.421875 16.171875 -25.421875 C 17.753906 -25.421875 19.046875 -25.097656 20.046875 -24.453125 C 21.054688 -23.816406 21.84375 -22.738281 22.40625 -21.21875 C 23.164062 -22.507812 24.140625 -23.53125 25.328125 -24.28125 C 26.515625 -25.039062 27.945312 -25.421875 29.625 -25.421875 C 31.007812 -25.421875 32.1875 -25.253906 33.15625 -24.921875 C 34.132812 -24.597656 34.925781 -24.03125 35.53125 -23.21875 C 36.144531 -22.414062 36.597656 -21.335938 36.890625 -19.984375 C 37.191406 -18.628906 37.34375 -16.914062 37.34375 -14.84375 L 37.34375 0 L 30.921875 0 L 30.921875 -13.90625 C 30.921875 -15.84375 30.710938 -17.296875 30.296875 -18.265625 C 29.890625 -19.242188 28.972656 -19.734375 27.546875 -19.734375 C 26.398438 -19.734375 25.488281 -19.421875 24.8125 -18.796875 C 24.132812 -18.171875 23.628906 -17.3125 23.296875 -16.21875 L 23.296875 0 Z M 16.875 0 "/></g></g></g><g fill="#000000" fill-opacity="1"><g transform="translate(582.312539, 164.494748)"><g><path d="M 2.8125 -24.734375 L 7.515625 -24.734375 L 8.265625 -21.765625 L 8.453125 -21.765625 C 9.316406 -23.015625 10.332031 -23.9375 11.5 -24.53125 C 12.664062 -25.125 14.09375 -25.421875 15.78125 -25.421875 C 18.882812 -25.421875 21.207031 -24.441406 22.75 -22.484375 C 24.300781 -20.523438 25.078125 -17.367188 25.078125 -13.015625 C 25.078125 -10.898438 24.828125 -8.992188 24.328125 -7.296875 C 23.835938 -5.597656 23.101562 -4.15625 22.125 -2.96875 C 21.15625 -1.78125 19.96875 -0.875 18.5625 -0.25 C 17.164062 0.375 15.5625 0.6875 13.75 0.6875 C 12.726562 0.6875 11.882812 0.613281 11.21875 0.46875 C 10.5625 0.320312 9.90625 0.0820312 9.25 -0.25 L 9.25 9.890625 L 2.8125 9.890625 Z M 13.84375 -19.984375 C 12.59375 -19.984375 11.613281 -19.671875 10.90625 -19.046875 C 10.195312 -18.421875 9.644531 -17.476562 9.25 -16.21875 L 9.25 -5.9375 C 9.707031 -5.570312 10.207031 -5.28125 10.75 -5.0625 C 11.300781 -4.851562 12.019531 -4.75 12.90625 -4.75 C 14.757812 -4.75 16.144531 -5.398438 17.0625 -6.703125 C 17.988281 -8.003906 18.453125 -10.15625 18.453125 -13.15625 C 18.453125 -15.332031 18.085938 -17.015625 17.359375 -18.203125 C 16.640625 -19.390625 15.46875 -19.984375 13.84375 -19.984375 Z M 13.84375 -19.984375 "/></g></g></g><g fill="#000000" fill-opacity="1"><g transform="translate(609.024162, 164.494748)"><g><path d="M 9 -24.734375 L 9 -10.6875 C 9 -8.675781 9.238281 -7.222656 9.71875 -6.328125 C 10.195312 -5.441406 11.128906 -5 12.515625 -5 C 13.734375 -5 14.742188 -5.359375 15.546875 -6.078125 C 16.359375 -6.804688 16.960938 -7.695312 17.359375 -8.75 L 17.359375 -24.734375 L 23.796875 -24.734375 L 23.796875 -7.515625 C 23.796875 -6.160156 23.859375 -4.832031 23.984375 -3.53125 C 24.117188 -2.226562 24.320312 -1.050781 24.59375 0 L 19.734375 0 L 18.59375 -3.65625 L 18.40625 -3.65625 C 17.644531 -2.40625 16.585938 -1.367188 15.234375 -0.546875 C 13.878906 0.273438 12.28125 0.6875 10.4375 0.6875 C 9.1875 0.6875 8.066406 0.519531 7.078125 0.1875 C 6.085938 -0.132812 5.257812 -0.675781 4.59375 -1.4375 C 3.9375 -2.195312 3.4375 -3.21875 3.09375 -4.5 C 2.75 -5.789062 2.578125 -7.40625 2.578125 -9.34375 L 2.578125 -24.734375 Z M 9 -24.734375 "/></g></g></g><g fill="#000000" fill-opacity="1"><g transform="translate(635.636865, 164.494748)"><g><path d="M 13.0625 -6.828125 C 13.0625 -7.484375 12.78125 -8.007812 12.21875 -8.40625 C 11.65625 -8.800781 10.960938 -9.164062 10.140625 -9.5 C 9.316406 -9.832031 8.410156 -10.171875 7.421875 -10.515625 C 6.429688 -10.859375 5.523438 -11.332031 4.703125 -11.9375 C 3.878906 -12.550781 3.1875 -13.328125 2.625 -14.265625 C 2.0625 -15.210938 1.78125 -16.425781 1.78125 -17.90625 C 1.78125 -20.34375 2.503906 -22.203125 3.953125 -23.484375 C 5.410156 -24.773438 7.503906 -25.421875 10.234375 -25.421875 C 12.117188 -25.421875 13.816406 -25.222656 15.328125 -24.828125 C 16.847656 -24.429688 18.035156 -23.988281 18.890625 -23.5 L 17.46875 -18.84375 C 16.707031 -19.144531 15.75 -19.457031 14.59375 -19.78125 C 13.4375 -20.113281 12.265625 -20.28125 11.078125 -20.28125 C 9.171875 -20.28125 8.21875 -19.539062 8.21875 -18.0625 C 8.21875 -17.46875 8.492188 -16.988281 9.046875 -16.625 C 9.609375 -16.257812 10.300781 -15.921875 11.125 -15.609375 C 11.957031 -15.296875 12.863281 -14.957031 13.84375 -14.59375 C 14.832031 -14.226562 15.738281 -13.753906 16.5625 -13.171875 C 17.394531 -12.597656 18.085938 -11.847656 18.640625 -10.921875 C 19.203125 -10.003906 19.484375 -8.820312 19.484375 -7.375 C 19.484375 -4.863281 18.679688 -2.890625 17.078125 -1.453125 C 15.484375 -0.0234375 13.085938 0.6875 9.890625 0.6875 C 8.140625 0.6875 6.5 0.460938 4.96875 0.015625 C 3.4375 -0.421875 2.191406 -0.9375 1.234375 -1.53125 L 3.015625 -6.328125 C 3.773438 -5.898438 4.78125 -5.476562 6.03125 -5.0625 C 7.289062 -4.65625 8.578125 -4.453125 9.890625 -4.453125 C 10.847656 -4.453125 11.613281 -4.632812 12.1875 -5 C 12.769531 -5.363281 13.0625 -5.972656 13.0625 -6.828125 Z M 13.0625 -6.828125 "/></g></g></g><g fill="#000000" fill-opacity="1"><g transform="translate(323.268818, 222.688747)"><g><path d="M 10.546875 -0.578125 C 10.148438 -0.273438 9.644531 -0.0664062 9.03125 0.046875 C 8.425781 0.171875 7.78125 0.234375 7.09375 0.234375 C 6.269531 0.234375 5.492188 0.09375 4.765625 -0.1875 C 4.035156 -0.46875 3.398438 -0.898438 2.859375 -1.484375 C 2.328125 -2.066406 1.898438 -2.804688 1.578125 -3.703125 C 1.265625 -4.609375 1.109375 -5.679688 1.109375 -6.921875 C 1.109375 -8.210938 1.28125 -9.3125 1.625 -10.21875 C 1.976562 -11.125 2.441406 -11.863281 3.015625 -12.4375 C 3.585938 -13.007812 4.226562 -13.425781 4.9375 -13.6875 C 5.65625 -13.945312 6.382812 -14.078125 7.125 -14.078125 C 7.914062 -14.078125 8.5625 -14.035156 9.0625 -13.953125 C 9.5625 -13.867188 9.988281 -13.753906 10.34375 -13.609375 L 9.953125 -12.171875 C 9.316406 -12.472656 8.410156 -12.625 7.234375 -12.625 C 6.691406 -12.625 6.15625 -12.523438 5.625 -12.328125 C 5.101562 -12.128906 4.632812 -11.804688 4.21875 -11.359375 C 3.800781 -10.910156 3.46875 -10.320312 3.21875 -9.59375 C 2.96875 -8.863281 2.84375 -7.972656 2.84375 -6.921875 C 2.84375 -5.972656 2.960938 -5.140625 3.203125 -4.421875 C 3.441406 -3.710938 3.769531 -3.117188 4.1875 -2.640625 C 4.601562 -2.171875 5.085938 -1.816406 5.640625 -1.578125 C 6.203125 -1.335938 6.816406 -1.21875 7.484375 -1.21875 C 8.078125 -1.21875 8.59375 -1.273438 9.03125 -1.390625 C 9.46875 -1.515625 9.835938 -1.671875 10.140625 -1.859375 Z M 10.546875 -0.578125 "/></g></g></g><g fill="#000000" fill-opacity="1"><g transform="translate(334.565254, 222.688747)"><g><path d="M 0.96875 -4.953125 C 0.96875 -6.617188 1.335938 -7.894531 2.078125 -8.78125 C 2.828125 -9.675781 3.898438 -10.125 5.296875 -10.125 C 6.035156 -10.125 6.675781 -10 7.21875 -9.75 C 7.769531 -9.507812 8.222656 -9.160156 8.578125 -8.703125 C 8.941406 -8.253906 9.207031 -7.707031 9.375 -7.0625 C 9.550781 -6.425781 9.640625 -5.722656 9.640625 -4.953125 C 9.640625 -3.273438 9.265625 -1.988281 8.515625 -1.09375 C 7.765625 -0.207031 6.691406 0.234375 5.296875 0.234375 C 4.554688 0.234375 3.910156 0.113281 3.359375 -0.125 C 2.816406 -0.375 2.367188 -0.722656 2.015625 -1.171875 C 1.660156 -1.628906 1.394531 -2.175781 1.21875 -2.8125 C 1.050781 -3.457031 0.96875 -4.171875 0.96875 -4.953125 Z M 2.609375 -4.953125 C 2.609375 -4.441406 2.65625 -3.957031 2.75 -3.5 C 2.851562 -3.039062 3.007812 -2.640625 3.21875 -2.296875 C 3.4375 -1.953125 3.710938 -1.671875 4.046875 -1.453125 C 4.390625 -1.242188 4.804688 -1.140625 5.296875 -1.140625 C 7.085938 -1.128906 7.984375 -2.398438 7.984375 -4.953125 C 7.984375 -5.460938 7.929688 -5.945312 7.828125 -6.40625 C 7.734375 -6.863281 7.582031 -7.265625 7.375 -7.609375 C 7.164062 -7.953125 6.890625 -8.226562 6.546875 -8.4375 C 6.203125 -8.644531 5.785156 -8.75 5.296875 -8.75 C 3.503906 -8.757812 2.609375 -7.492188 2.609375 -4.953125 Z M 2.609375 -4.953125 "/></g></g></g><g fill="#000000" fill-opacity="1"><g transform="translate(345.169261, 222.688747)"><g><path d="M 7.875 0 L 7.875 -5.640625 C 7.875 -6.671875 7.722656 -7.445312 7.421875 -7.96875 C 7.128906 -8.488281 6.585938 -8.75 5.796875 -8.75 C 5.097656 -8.75 4.519531 -8.554688 4.0625 -8.171875 C 3.601562 -7.796875 3.285156 -7.328125 3.109375 -6.765625 L 3.109375 0 L 1.515625 0 L 1.515625 -9.890625 L 2.625 -9.890625 L 2.921875 -8.6875 L 3 -8.6875 C 3.320312 -9.101562 3.75 -9.445312 4.28125 -9.71875 C 4.8125 -9.988281 5.445312 -10.125 6.1875 -10.125 C 6.726562 -10.125 7.203125 -10.0625 7.609375 -9.9375 C 8.023438 -9.8125 8.367188 -9.585938 8.640625 -9.265625 C 8.910156 -8.953125 9.113281 -8.53125 9.25 -8 C 9.382812 -7.46875 9.453125 -6.789062 9.453125 -5.96875 L 9.453125 0 Z M 7.875 0 "/></g></g></g><g fill="#000000" fill-opacity="1"><g transform="translate(355.990896, 222.688747)"><g><path d="M 8.75 -0.796875 C 8.351562 -0.472656 7.851562 -0.21875 7.25 -0.03125 C 6.644531 0.144531 6.007812 0.234375 5.34375 0.234375 C 4.59375 0.234375 3.9375 0.113281 3.375 -0.125 C 2.820312 -0.375 2.367188 -0.722656 2.015625 -1.171875 C 1.660156 -1.628906 1.394531 -2.175781 1.21875 -2.8125 C 1.050781 -3.445312 0.96875 -4.160156 0.96875 -4.953125 C 0.96875 -6.640625 1.34375 -7.921875 2.09375 -8.796875 C 2.84375 -9.679688 3.921875 -10.125 5.328125 -10.125 C 5.773438 -10.125 6.222656 -10.070312 6.671875 -9.96875 C 7.117188 -9.875 7.519531 -9.6875 7.875 -9.40625 C 8.226562 -9.132812 8.515625 -8.742188 8.734375 -8.234375 C 8.960938 -7.734375 9.078125 -7.066406 9.078125 -6.234375 C 9.078125 -5.796875 9.039062 -5.3125 8.96875 -4.78125 L 2.609375 -4.78125 C 2.609375 -4.207031 2.664062 -3.695312 2.78125 -3.25 C 2.90625 -2.800781 3.09375 -2.421875 3.34375 -2.109375 C 3.59375 -1.796875 3.914062 -1.554688 4.3125 -1.390625 C 4.71875 -1.222656 5.210938 -1.140625 5.796875 -1.140625 C 6.242188 -1.140625 6.691406 -1.21875 7.140625 -1.375 C 7.585938 -1.539062 7.925781 -1.726562 8.15625 -1.9375 Z M 5.34375 -8.75 C 4.5625 -8.75 3.9375 -8.539062 3.46875 -8.125 C 3 -7.71875 2.71875 -7.019531 2.625 -6.03125 L 7.53125 -6.03125 C 7.53125 -7.03125 7.335938 -7.734375 6.953125 -8.140625 C 6.578125 -8.546875 6.039062 -8.75 5.34375 -8.75 Z M 5.34375 -8.75 "/></g></g></g><g fill="#000000" fill-opacity="1"><g transform="translate(366.040969, 222.688747)"><g><path d="M 8.265625 -0.65625 C 7.867188 -0.363281 7.398438 -0.144531 6.859375 0 C 6.316406 0.15625 5.75 0.234375 5.15625 0.234375 C 4.394531 0.234375 3.75 0.113281 3.21875 -0.125 C 2.695312 -0.375 2.265625 -0.722656 1.921875 -1.171875 C 1.585938 -1.628906 1.34375 -2.175781 1.1875 -2.8125 C 1.039062 -3.457031 0.96875 -4.171875 0.96875 -4.953125 C 0.96875 -6.617188 1.335938 -7.894531 2.078125 -8.78125 C 2.816406 -9.675781 3.878906 -10.125 5.265625 -10.125 C 5.898438 -10.125 6.4375 -10.070312 6.875 -9.96875 C 7.3125 -9.875 7.710938 -9.734375 8.078125 -9.546875 L 7.609375 -8.1875 C 7.304688 -8.363281 6.96875 -8.5 6.59375 -8.59375 C 6.226562 -8.695312 5.835938 -8.75 5.421875 -8.75 C 3.546875 -8.75 2.609375 -7.484375 2.609375 -4.953125 C 2.609375 -4.441406 2.65625 -3.957031 2.75 -3.5 C 2.851562 -3.050781 3.019531 -2.648438 3.25 -2.296875 C 3.476562 -1.953125 3.78125 -1.671875 4.15625 -1.453125 C 4.539062 -1.242188 5.007812 -1.140625 5.5625 -1.140625 C 6.03125 -1.140625 6.453125 -1.210938 6.828125 -1.359375 C 7.203125 -1.503906 7.507812 -1.671875 7.75 -1.859375 Z M 8.265625 -0.65625 "/></g></g></g><g fill="#000000" fill-opacity="1"><g transform="translate(374.963371, 222.688747)"><g><path d="M 0.21875 -9.890625 L 1.765625 -9.890625 L 1.765625 -11.84375 L 3.34375 -12.296875 L 3.34375 -9.890625 L 6.03125 -9.890625 L 6.03125 -8.5 L 3.34375 -8.5 L 3.34375 -3.03125 C 3.34375 -2.34375 3.425781 -1.851562 3.59375 -1.5625 C 3.769531 -1.28125 4.0625 -1.140625 4.46875 -1.140625 C 4.8125 -1.140625 5.101562 -1.175781 5.34375 -1.25 C 5.582031 -1.320312 5.84375 -1.421875 6.125 -1.546875 L 6.484375 -0.34375 C 6.128906 -0.164062 5.738281 -0.0234375 5.3125 0.078125 C 4.894531 0.179688 4.441406 0.234375 3.953125 0.234375 C 3.148438 0.234375 2.582031 0.0078125 2.25 -0.4375 C 1.925781 -0.894531 1.765625 -1.660156 1.765625 -2.734375 L 1.765625 -8.5 L 0.21875 -8.5 Z M 0.21875 -9.890625 "/></g></g></g><g fill="#000000" fill-opacity="1"><g transform="translate(381.670019, 222.688747)"><g><path d="M 1.359375 -9.15625 C 1.859375 -9.457031 2.441406 -9.679688 3.109375 -9.828125 C 3.773438 -9.972656 4.472656 -10.046875 5.203125 -10.046875 C 5.890625 -10.046875 6.441406 -9.953125 6.859375 -9.765625 C 7.273438 -9.585938 7.585938 -9.347656 7.796875 -9.046875 C 8.015625 -8.753906 8.160156 -8.425781 8.234375 -8.0625 C 8.304688 -7.707031 8.34375 -7.351562 8.34375 -7 C 8.34375 -6.207031 8.320312 -5.4375 8.28125 -4.6875 C 8.25 -3.9375 8.234375 -3.222656 8.234375 -2.546875 C 8.234375 -2.054688 8.25 -1.59375 8.28125 -1.15625 C 8.320312 -0.726562 8.394531 -0.328125 8.5 0.046875 L 7.34375 0.046875 L 6.921875 -1.34375 L 6.828125 -1.34375 C 6.703125 -1.15625 6.550781 -0.972656 6.375 -0.796875 C 6.195312 -0.617188 5.984375 -0.460938 5.734375 -0.328125 C 5.484375 -0.191406 5.191406 -0.078125 4.859375 0.015625 C 4.535156 0.109375 4.160156 0.15625 3.734375 0.15625 C 3.316406 0.15625 2.925781 0.09375 2.5625 -0.03125 C 2.195312 -0.164062 1.878906 -0.351562 1.609375 -0.59375 C 1.347656 -0.84375 1.140625 -1.140625 0.984375 -1.484375 C 0.835938 -1.828125 0.765625 -2.21875 0.765625 -2.65625 C 0.765625 -3.226562 0.882812 -3.707031 1.125 -4.09375 C 1.363281 -4.488281 1.695312 -4.800781 2.125 -5.03125 C 2.550781 -5.257812 3.0625 -5.421875 3.65625 -5.515625 C 4.257812 -5.617188 4.925781 -5.671875 5.65625 -5.671875 C 5.84375 -5.671875 6.023438 -5.671875 6.203125 -5.671875 C 6.378906 -5.671875 6.5625 -5.660156 6.75 -5.640625 C 6.789062 -6.035156 6.8125 -6.390625 6.8125 -6.703125 C 6.8125 -7.429688 6.664062 -7.941406 6.375 -8.234375 C 6.082031 -8.523438 5.550781 -8.671875 4.78125 -8.671875 C 4.5625 -8.671875 4.320312 -8.648438 4.0625 -8.609375 C 3.800781 -8.578125 3.535156 -8.53125 3.265625 -8.46875 C 3.003906 -8.414062 2.75 -8.34375 2.5 -8.25 C 2.257812 -8.164062 2.046875 -8.070312 1.859375 -7.96875 Z M 4.171875 -1.21875 C 4.546875 -1.21875 4.875 -1.265625 5.15625 -1.359375 C 5.445312 -1.460938 5.695312 -1.59375 5.90625 -1.75 C 6.125 -1.90625 6.300781 -2.070312 6.4375 -2.25 C 6.570312 -2.4375 6.675781 -2.617188 6.75 -2.796875 L 6.75 -4.4375 C 6.5625 -4.445312 6.367188 -4.453125 6.171875 -4.453125 C 5.984375 -4.460938 5.800781 -4.46875 5.625 -4.46875 C 5.207031 -4.46875 4.804688 -4.441406 4.421875 -4.390625 C 4.035156 -4.347656 3.691406 -4.265625 3.390625 -4.140625 C 3.097656 -4.015625 2.859375 -3.84375 2.671875 -3.625 C 2.492188 -3.40625 2.40625 -3.132812 2.40625 -2.8125 C 2.40625 -2.34375 2.570312 -1.957031 2.90625 -1.65625 C 3.238281 -1.363281 3.660156 -1.21875 4.171875 -1.21875 Z M 4.171875 -1.21875 "/></g></g></g><g fill="#000000" fill-opacity="1"><g transform="translate(391.482691, 222.688747)"><g><path d="M 7.875 0 L 7.875 -5.640625 C 7.875 -6.671875 7.722656 -7.445312 7.421875 -7.96875 C 7.128906 -8.488281 6.585938 -8.75 5.796875 -8.75 C 5.097656 -8.75 4.519531 -8.554688 4.0625 -8.171875 C 3.601562 -7.796875 3.285156 -7.328125 3.109375 -6.765625 L 3.109375 0 L 1.515625 0 L 1.515625 -9.890625 L 2.625 -9.890625 L 2.921875 -8.6875 L 3 -8.6875 C 3.320312 -9.101562 3.75 -9.445312 4.28125 -9.71875 C 4.8125 -9.988281 5.445312 -10.125 6.1875 -10.125 C 6.726562 -10.125 7.203125 -10.0625 7.609375 -9.9375 C 8.023438 -9.8125 8.367188 -9.585938 8.640625 -9.265625 C 8.910156 -8.953125 9.113281 -8.53125 9.25 -8 C 9.382812 -7.46875 9.453125 -6.789062 9.453125 -5.96875 L 9.453125 0 Z M 7.875 0 "/></g></g></g><g fill="#000000" fill-opacity="1"><g transform="translate(402.304326, 222.688747)"><g><path d="M 9.125 -3.40625 C 9.125 -2.726562 9.128906 -2.113281 9.140625 -1.5625 C 9.148438 -1.019531 9.207031 -0.484375 9.3125 0.046875 L 8.25 0.046875 L 7.859375 -1.359375 L 7.78125 -1.359375 C 7.507812 -0.898438 7.125 -0.519531 6.625 -0.21875 C 6.125 0.0820312 5.535156 0.234375 4.859375 0.234375 C 3.546875 0.234375 2.566406 -0.175781 1.921875 -1 C 1.285156 -1.832031 0.96875 -3.132812 0.96875 -4.90625 C 0.96875 -6.59375 1.363281 -7.875 2.15625 -8.75 C 2.957031 -9.625 4.054688 -10.0625 5.453125 -10.0625 C 5.941406 -10.0625 6.328125 -10.035156 6.609375 -9.984375 C 6.898438 -9.929688 7.207031 -9.847656 7.53125 -9.734375 L 7.53125 -13.84375 L 9.125 -13.84375 Z M 5.125 -1.140625 C 5.789062 -1.140625 6.320312 -1.316406 6.71875 -1.671875 C 7.113281 -2.023438 7.382812 -2.554688 7.53125 -3.265625 L 7.53125 -8.171875 C 7.300781 -8.359375 7.03125 -8.488281 6.71875 -8.5625 C 6.414062 -8.644531 6.015625 -8.6875 5.515625 -8.6875 C 4.609375 -8.6875 3.894531 -8.382812 3.375 -7.78125 C 2.863281 -7.1875 2.609375 -6.226562 2.609375 -4.90625 C 2.609375 -4.363281 2.648438 -3.859375 2.734375 -3.390625 C 2.828125 -2.929688 2.972656 -2.535156 3.171875 -2.203125 C 3.367188 -1.878906 3.628906 -1.617188 3.953125 -1.421875 C 4.273438 -1.234375 4.664062 -1.140625 5.125 -1.140625 Z M 5.125 -1.140625 "/></g></g></g><g fill="#000000" fill-opacity="1"><g transform="translate(412.947907, 222.688747)"><g><path d="M 0.96875 -4.953125 C 0.96875 -6.617188 1.335938 -7.894531 2.078125 -8.78125 C 2.828125 -9.675781 3.898438 -10.125 5.296875 -10.125 C 6.035156 -10.125 6.675781 -10 7.21875 -9.75 C 7.769531 -9.507812 8.222656 -9.160156 8.578125 -8.703125 C 8.941406 -8.253906 9.207031 -7.707031 9.375 -7.0625 C 9.550781 -6.425781 9.640625 -5.722656 9.640625 -4.953125 C 9.640625 -3.273438 9.265625 -1.988281 8.515625 -1.09375 C 7.765625 -0.207031 6.691406 0.234375 5.296875 0.234375 C 4.554688 0.234375 3.910156 0.113281 3.359375 -0.125 C 2.816406 -0.375 2.367188 -0.722656 2.015625 -1.171875 C 1.660156 -1.628906 1.394531 -2.175781 1.21875 -2.8125 C 1.050781 -3.457031 0.96875 -4.171875 0.96875 -4.953125 Z M 2.609375 -4.953125 C 2.609375 -4.441406 2.65625 -3.957031 2.75 -3.5 C 2.851562 -3.039062 3.007812 -2.640625 3.21875 -2.296875 C 3.4375 -1.953125 3.710938 -1.671875 4.046875 -1.453125 C 4.390625 -1.242188 4.804688 -1.140625 5.296875 -1.140625 C 7.085938 -1.128906 7.984375 -2.398438 7.984375 -4.953125 C 7.984375 -5.460938 7.929688 -5.945312 7.828125 -6.40625 C 7.734375 -6.863281 7.582031 -7.265625 7.375 -7.609375 C 7.164062 -7.953125 6.890625 -8.226562 6.546875 -8.4375 C 6.203125 -8.644531 5.785156 -8.75 5.296875 -8.75 C 3.503906 -8.757812 2.609375 -7.492188 2.609375 -4.953125 Z M 2.609375 -4.953125 "/></g></g></g><g fill="#000000" fill-opacity="1"><g transform="translate(423.551914, 222.688747)"><g/></g></g><g fill="#000000" fill-opacity="1"><g transform="translate(428.834131, 222.688747)"><g><path d="M 0.21875 -9.890625 L 1.765625 -9.890625 L 1.765625 -11.84375 L 3.34375 -12.296875 L 3.34375 -9.890625 L 6.03125 -9.890625 L 6.03125 -8.5 L 3.34375 -8.5 L 3.34375 -3.03125 C 3.34375 -2.34375 3.425781 -1.851562 3.59375 -1.5625 C 3.769531 -1.28125 4.0625 -1.140625 4.46875 -1.140625 C 4.8125 -1.140625 5.101562 -1.175781 5.34375 -1.25 C 5.582031 -1.320312 5.84375 -1.421875 6.125 -1.546875 L 6.484375 -0.34375 C 6.128906 -0.164062 5.738281 -0.0234375 5.3125 0.078125 C 4.894531 0.179688 4.441406 0.234375 3.953125 0.234375 C 3.148438 0.234375 2.582031 0.0078125 2.25 -0.4375 C 1.925781 -0.894531 1.765625 -1.660156 1.765625 -2.734375 L 1.765625 -8.5 L 0.21875 -8.5 Z M 0.21875 -9.890625 "/></g></g></g><g fill="#000000" fill-opacity="1"><g transform="translate(435.54078, 222.688747)"><g><path d="M 2.953125 -9.890625 L 2.953125 -4.25 C 2.953125 -3.738281 2.976562 -3.285156 3.03125 -2.890625 C 3.09375 -2.503906 3.195312 -2.179688 3.34375 -1.921875 C 3.488281 -1.671875 3.6875 -1.476562 3.9375 -1.34375 C 4.1875 -1.207031 4.503906 -1.140625 4.890625 -1.140625 C 5.242188 -1.140625 5.554688 -1.195312 5.828125 -1.3125 C 6.109375 -1.425781 6.359375 -1.582031 6.578125 -1.78125 C 6.796875 -1.976562 6.984375 -2.203125 7.140625 -2.453125 C 7.304688 -2.710938 7.445312 -2.988281 7.5625 -3.28125 L 7.5625 -9.890625 L 9.140625 -9.890625 L 9.140625 -2.8125 C 9.140625 -2.332031 9.15625 -1.835938 9.1875 -1.328125 C 9.21875 -0.828125 9.273438 -0.382812 9.359375 0 L 8.265625 0 L 7.875 -1.5625 L 7.78125 -1.5625 C 7.46875 -1.050781 7.054688 -0.625 6.546875 -0.28125 C 6.035156 0.0625 5.382812 0.234375 4.59375 0.234375 C 4.0625 0.234375 3.59375 0.171875 3.1875 0.046875 C 2.789062 -0.078125 2.457031 -0.296875 2.1875 -0.609375 C 1.914062 -0.929688 1.707031 -1.359375 1.5625 -1.890625 C 1.425781 -2.421875 1.359375 -3.097656 1.359375 -3.921875 L 1.359375 -9.890625 Z M 2.953125 -9.890625 "/></g></g></g><g fill="#000000" fill-opacity="1"><g transform="translate(446.204147, 222.688747)"><g/></g></g><g fill="#000000" fill-opacity="1"><g transform="translate(451.486364, 222.688747)"><g><path d="M 7.3125 0 L 7.3125 -5.59375 C 7.3125 -6.125 7.289062 -6.582031 7.25 -6.96875 C 7.207031 -7.363281 7.117188 -7.691406 6.984375 -7.953125 C 6.847656 -8.210938 6.65625 -8.410156 6.40625 -8.546875 C 6.164062 -8.679688 5.847656 -8.75 5.453125 -8.75 C 4.847656 -8.75 4.34375 -8.5625 3.9375 -8.1875 C 3.539062 -7.820312 3.265625 -7.363281 3.109375 -6.8125 L 3.109375 0 L 1.515625 0 L 1.515625 -9.890625 L 2.625 -9.890625 L 2.921875 -8.6875 L 3 -8.6875 C 3.363281 -9.101562 3.78125 -9.445312 4.25 -9.71875 C 4.71875 -9.988281 5.328125 -10.125 6.078125 -10.125 C 6.703125 -10.125 7.21875 -10 7.625 -9.75 C 8.03125 -9.507812 8.34375 -9.085938 8.5625 -8.484375 C 8.863281 -8.992188 9.28125 -9.394531 9.8125 -9.6875 C 10.351562 -9.976562 10.957031 -10.125 11.625 -10.125 C 12.1875 -10.125 12.65625 -10.0625 13.03125 -9.9375 C 13.414062 -9.8125 13.734375 -9.585938 13.984375 -9.265625 C 14.234375 -8.953125 14.414062 -8.523438 14.53125 -7.984375 C 14.644531 -7.453125 14.703125 -6.769531 14.703125 -5.9375 L 14.703125 0 L 13.109375 0 L 13.109375 -5.953125 C 13.109375 -6.429688 13.085938 -6.84375 13.046875 -7.1875 C 13.003906 -7.539062 12.910156 -7.832031 12.765625 -8.0625 C 12.628906 -8.289062 12.4375 -8.460938 12.1875 -8.578125 C 11.945312 -8.691406 11.628906 -8.75 11.234375 -8.75 C 10.578125 -8.75 10.0625 -8.5625 9.6875 -8.1875 C 9.320312 -7.820312 9.0625 -7.296875 8.90625 -6.609375 L 8.90625 0 Z M 7.3125 0 "/></g></g></g><g fill="#000000" fill-opacity="1"><g transform="translate(467.550656, 222.688747)"><g><path d="M 2.953125 -9.890625 L 2.953125 -4.25 C 2.953125 -3.738281 2.976562 -3.285156 3.03125 -2.890625 C 3.09375 -2.503906 3.195312 -2.179688 3.34375 -1.921875 C 3.488281 -1.671875 3.6875 -1.476562 3.9375 -1.34375 C 4.1875 -1.207031 4.503906 -1.140625 4.890625 -1.140625 C 5.242188 -1.140625 5.554688 -1.195312 5.828125 -1.3125 C 6.109375 -1.425781 6.359375 -1.582031 6.578125 -1.78125 C 6.796875 -1.976562 6.984375 -2.203125 7.140625 -2.453125 C 7.304688 -2.710938 7.445312 -2.988281 7.5625 -3.28125 L 7.5625 -9.890625 L 9.140625 -9.890625 L 9.140625 -2.8125 C 9.140625 -2.332031 9.15625 -1.835938 9.1875 -1.328125 C 9.21875 -0.828125 9.273438 -0.382812 9.359375 0 L 8.265625 0 L 7.875 -1.5625 L 7.78125 -1.5625 C 7.46875 -1.050781 7.054688 -0.625 6.546875 -0.28125 C 6.035156 0.0625 5.382812 0.234375 4.59375 0.234375 C 4.0625 0.234375 3.59375 0.171875 3.1875 0.046875 C 2.789062 -0.078125 2.457031 -0.296875 2.1875 -0.609375 C 1.914062 -0.929688 1.707031 -1.359375 1.5625 -1.890625 C 1.425781 -2.421875 1.359375 -3.097656 1.359375 -3.921875 L 1.359375 -9.890625 Z M 2.953125 -9.890625 "/></g></g></g><g fill="#000000" fill-opacity="1"><g transform="translate(478.214024, 222.688747)"><g><path d="M 7.875 0 L 7.875 -5.640625 C 7.875 -6.671875 7.722656 -7.445312 7.421875 -7.96875 C 7.128906 -8.488281 6.585938 -8.75 5.796875 -8.75 C 5.097656 -8.75 4.519531 -8.554688 4.0625 -8.171875 C 3.601562 -7.796875 3.285156 -7.328125 3.109375 -6.765625 L 3.109375 0 L 1.515625 0 L 1.515625 -9.890625 L 2.625 -9.890625 L 2.921875 -8.6875 L 3 -8.6875 C 3.320312 -9.101562 3.75 -9.445312 4.28125 -9.71875 C 4.8125 -9.988281 5.445312 -10.125 6.1875 -10.125 C 6.726562 -10.125 7.203125 -10.0625 7.609375 -9.9375 C 8.023438 -9.8125 8.367188 -9.585938 8.640625 -9.265625 C 8.910156 -8.953125 9.113281 -8.53125 9.25 -8 C 9.382812 -7.46875 9.453125 -6.789062 9.453125 -5.96875 L 9.453125 0 Z M 7.875 0 "/></g></g></g><g fill="#000000" fill-opacity="1"><g transform="translate(489.035659, 222.688747)"><g><path d="M 9.125 -3.40625 C 9.125 -2.726562 9.128906 -2.113281 9.140625 -1.5625 C 9.148438 -1.019531 9.207031 -0.484375 9.3125 0.046875 L 8.25 0.046875 L 7.859375 -1.359375 L 7.78125 -1.359375 C 7.507812 -0.898438 7.125 -0.519531 6.625 -0.21875 C 6.125 0.0820312 5.535156 0.234375 4.859375 0.234375 C 3.546875 0.234375 2.566406 -0.175781 1.921875 -1 C 1.285156 -1.832031 0.96875 -3.132812 0.96875 -4.90625 C 0.96875 -6.59375 1.363281 -7.875 2.15625 -8.75 C 2.957031 -9.625 4.054688 -10.0625 5.453125 -10.0625 C 5.941406 -10.0625 6.328125 -10.035156 6.609375 -9.984375 C 6.898438 -9.929688 7.207031 -9.847656 7.53125 -9.734375 L 7.53125 -13.84375 L 9.125 -13.84375 Z M 5.125 -1.140625 C 5.789062 -1.140625 6.320312 -1.316406 6.71875 -1.671875 C 7.113281 -2.023438 7.382812 -2.554688 7.53125 -3.265625 L 7.53125 -8.171875 C 7.300781 -8.359375 7.03125 -8.488281 6.71875 -8.5625 C 6.414062 -8.644531 6.015625 -8.6875 5.515625 -8.6875 C 4.609375 -8.6875 3.894531 -8.382812 3.375 -7.78125 C 2.863281 -7.1875 2.609375 -6.226562 2.609375 -4.90625 C 2.609375 -4.363281 2.648438 -3.859375 2.734375 -3.390625 C 2.828125 -2.929688 2.972656 -2.535156 3.171875 -2.203125 C 3.367188 -1.878906 3.628906 -1.617188 3.953125 -1.421875 C 4.273438 -1.234375 4.664062 -1.140625 5.125 -1.140625 Z M 5.125 -1.140625 "/></g></g></g><g fill="#000000" fill-opacity="1"><g transform="translate(499.67924, 222.688747)"><g><path d="M 0.96875 -4.953125 C 0.96875 -6.617188 1.335938 -7.894531 2.078125 -8.78125 C 2.828125 -9.675781 3.898438 -10.125 5.296875 -10.125 C 6.035156 -10.125 6.675781 -10 7.21875 -9.75 C 7.769531 -9.507812 8.222656 -9.160156 8.578125 -8.703125 C 8.941406 -8.253906 9.207031 -7.707031 9.375 -7.0625 C 9.550781 -6.425781 9.640625 -5.722656 9.640625 -4.953125 C 9.640625 -3.273438 9.265625 -1.988281 8.515625 -1.09375 C 7.765625 -0.207031 6.691406 0.234375 5.296875 0.234375 C 4.554688 0.234375 3.910156 0.113281 3.359375 -0.125 C 2.816406 -0.375 2.367188 -0.722656 2.015625 -1.171875 C 1.660156 -1.628906 1.394531 -2.175781 1.21875 -2.8125 C 1.050781 -3.457031 0.96875 -4.171875 0.96875 -4.953125 Z M 2.609375 -4.953125 C 2.609375 -4.441406 2.65625 -3.957031 2.75 -3.5 C 2.851562 -3.039062 3.007812 -2.640625 3.21875 -2.296875 C 3.4375 -1.953125 3.710938 -1.671875 4.046875 -1.453125 C 4.390625 -1.242188 4.804688 -1.140625 5.296875 -1.140625 C 7.085938 -1.128906 7.984375 -2.398438 7.984375 -4.953125 C 7.984375 -5.460938 7.929688 -5.945312 7.828125 -6.40625 C 7.734375 -6.863281 7.582031 -7.265625 7.375 -7.609375 C 7.164062 -7.953125 6.890625 -8.226562 6.546875 -8.4375 C 6.203125 -8.644531 5.785156 -8.75 5.296875 -8.75 C 3.503906 -8.757812 2.609375 -7.492188 2.609375 -4.953125 Z M 2.609375 -4.953125 "/></g></g></g><g fill="#000000" fill-opacity="1"><g transform="translate(510.283247, 222.688747)"><g><path d="M 0.96875 -0.84375 C 0.96875 -1.164062 1.070312 -1.425781 1.28125 -1.625 C 1.5 -1.820312 1.769531 -1.921875 2.09375 -1.921875 C 2.5 -1.921875 2.832031 -1.773438 3.09375 -1.484375 C 3.351562 -1.191406 3.484375 -0.769531 3.484375 -0.21875 C 3.484375 0.257812 3.414062 0.675781 3.28125 1.03125 C 3.144531 1.382812 2.972656 1.6875 2.765625 1.9375 C 2.554688 2.195312 2.328125 2.410156 2.078125 2.578125 C 1.828125 2.742188 1.578125 2.867188 1.328125 2.953125 L 0.828125 2.171875 C 1.304688 1.992188 1.660156 1.707031 1.890625 1.3125 C 2.117188 0.925781 2.234375 0.535156 2.234375 0.140625 C 2.117188 0.179688 2.007812 0.203125 1.90625 0.203125 C 1.632812 0.203125 1.410156 0.113281 1.234375 -0.0625 C 1.054688 -0.25 0.96875 -0.507812 0.96875 -0.84375 Z M 0.96875 -0.84375 "/></g></g></g><g fill="#000000" fill-opacity="1"><g transform="translate(514.734555, 222.688747)"><g/></g></g><g fill="#000000" fill-opacity="1"><g transform="translate(520.016771, 222.688747)"><g><path d="M 1.359375 -9.15625 C 1.859375 -9.457031 2.441406 -9.679688 3.109375 -9.828125 C 3.773438 -9.972656 4.472656 -10.046875 5.203125 -10.046875 C 5.890625 -10.046875 6.441406 -9.953125 6.859375 -9.765625 C 7.273438 -9.585938 7.585938 -9.347656 7.796875 -9.046875 C 8.015625 -8.753906 8.160156 -8.425781 8.234375 -8.0625 C 8.304688 -7.707031 8.34375 -7.351562 8.34375 -7 C 8.34375 -6.207031 8.320312 -5.4375 8.28125 -4.6875 C 8.25 -3.9375 8.234375 -3.222656 8.234375 -2.546875 C 8.234375 -2.054688 8.25 -1.59375 8.28125 -1.15625 C 8.320312 -0.726562 8.394531 -0.328125 8.5 0.046875 L 7.34375 0.046875 L 6.921875 -1.34375 L 6.828125 -1.34375 C 6.703125 -1.15625 6.550781 -0.972656 6.375 -0.796875 C 6.195312 -0.617188 5.984375 -0.460938 5.734375 -0.328125 C 5.484375 -0.191406 5.191406 -0.078125 4.859375 0.015625 C 4.535156 0.109375 4.160156 0.15625 3.734375 0.15625 C 3.316406 0.15625 2.925781 0.09375 2.5625 -0.03125 C 2.195312 -0.164062 1.878906 -0.351562 1.609375 -0.59375 C 1.347656 -0.84375 1.140625 -1.140625 0.984375 -1.484375 C 0.835938 -1.828125 0.765625 -2.21875 0.765625 -2.65625 C 0.765625 -3.226562 0.882812 -3.707031 1.125 -4.09375 C 1.363281 -4.488281 1.695312 -4.800781 2.125 -5.03125 C 2.550781 -5.257812 3.0625 -5.421875 3.65625 -5.515625 C 4.257812 -5.617188 4.925781 -5.671875 5.65625 -5.671875 C 5.84375 -5.671875 6.023438 -5.671875 6.203125 -5.671875 C 6.378906 -5.671875 6.5625 -5.660156 6.75 -5.640625 C 6.789062 -6.035156 6.8125 -6.390625 6.8125 -6.703125 C 6.8125 -7.429688 6.664062 -7.941406 6.375 -8.234375 C 6.082031 -8.523438 5.550781 -8.671875 4.78125 -8.671875 C 4.5625 -8.671875 4.320312 -8.648438 4.0625 -8.609375 C 3.800781 -8.578125 3.535156 -8.53125 3.265625 -8.46875 C 3.003906 -8.414062 2.75 -8.34375 2.5 -8.25 C 2.257812 -8.164062 2.046875 -8.070312 1.859375 -7.96875 Z M 4.171875 -1.21875 C 4.546875 -1.21875 4.875 -1.265625 5.15625 -1.359375 C 5.445312 -1.460938 5.695312 -1.59375 5.90625 -1.75 C 6.125 -1.90625 6.300781 -2.070312 6.4375 -2.25 C 6.570312 -2.4375 6.675781 -2.617188 6.75 -2.796875 L 6.75 -4.4375 C 6.5625 -4.445312 6.367188 -4.453125 6.171875 -4.453125 C 5.984375 -4.460938 5.800781 -4.46875 5.625 -4.46875 C 5.207031 -4.46875 4.804688 -4.441406 4.421875 -4.390625 C 4.035156 -4.347656 3.691406 -4.265625 3.390625 -4.140625 C 3.097656 -4.015625 2.859375 -3.84375 2.671875 -3.625 C 2.492188 -3.40625 2.40625 -3.132812 2.40625 -2.8125 C 2.40625 -2.34375 2.570312 -1.957031 2.90625 -1.65625 C 3.238281 -1.363281 3.660156 -1.21875 4.171875 -1.21875 Z M 4.171875 -1.21875 "/></g></g></g><g fill="#000000" fill-opacity="1"><g transform="translate(529.829443, 222.688747)"><g><path d="M 5.875 -2.6875 C 5.875 -3.082031 5.753906 -3.390625 5.515625 -3.609375 C 5.273438 -3.835938 4.976562 -4.023438 4.625 -4.171875 C 4.28125 -4.328125 3.898438 -4.472656 3.484375 -4.609375 C 3.078125 -4.753906 2.695312 -4.9375 2.34375 -5.15625 C 1.988281 -5.375 1.691406 -5.65625 1.453125 -6 C 1.222656 -6.34375 1.109375 -6.800781 1.109375 -7.375 C 1.109375 -8.320312 1.378906 -9.015625 1.921875 -9.453125 C 2.460938 -9.898438 3.210938 -10.125 4.171875 -10.125 C 4.878906 -10.125 5.472656 -10.0625 5.953125 -9.9375 C 6.441406 -9.8125 6.863281 -9.664062 7.21875 -9.5 L 6.84375 -8.1875 C 6.539062 -8.332031 6.175781 -8.460938 5.75 -8.578125 C 5.320312 -8.691406 4.863281 -8.75 4.375 -8.75 C 3.789062 -8.75 3.363281 -8.648438 3.09375 -8.453125 C 2.820312 -8.253906 2.6875 -7.910156 2.6875 -7.421875 C 2.6875 -7.078125 2.804688 -6.804688 3.046875 -6.609375 C 3.285156 -6.421875 3.578125 -6.25 3.921875 -6.09375 C 4.273438 -5.945312 4.660156 -5.800781 5.078125 -5.65625 C 5.492188 -5.507812 5.875 -5.316406 6.21875 -5.078125 C 6.570312 -4.847656 6.863281 -4.550781 7.09375 -4.1875 C 7.332031 -3.820312 7.453125 -3.34375 7.453125 -2.75 C 7.453125 -2.320312 7.382812 -1.925781 7.25 -1.5625 C 7.113281 -1.195312 6.898438 -0.878906 6.609375 -0.609375 C 6.316406 -0.347656 5.957031 -0.144531 5.53125 0 C 5.101562 0.15625 4.597656 0.234375 4.015625 0.234375 C 3.265625 0.234375 2.625 0.160156 2.09375 0.015625 C 1.570312 -0.128906 1.128906 -0.300781 0.765625 -0.5 L 1.25 -1.84375 C 1.550781 -1.664062 1.945312 -1.503906 2.4375 -1.359375 C 2.925781 -1.210938 3.421875 -1.140625 3.921875 -1.140625 C 4.484375 -1.140625 4.945312 -1.25 5.3125 -1.46875 C 5.6875 -1.695312 5.875 -2.101562 5.875 -2.6875 Z M 5.875 -2.6875 "/></g></g></g><g fill="#000000" fill-opacity="1"><g transform="translate(538.158336, 222.688747)"><g><path d="M 8.75 -0.796875 C 8.351562 -0.472656 7.851562 -0.21875 7.25 -0.03125 C 6.644531 0.144531 6.007812 0.234375 5.34375 0.234375 C 4.59375 0.234375 3.9375 0.113281 3.375 -0.125 C 2.820312 -0.375 2.367188 -0.722656 2.015625 -1.171875 C 1.660156 -1.628906 1.394531 -2.175781 1.21875 -2.8125 C 1.050781 -3.445312 0.96875 -4.160156 0.96875 -4.953125 C 0.96875 -6.640625 1.34375 -7.921875 2.09375 -8.796875 C 2.84375 -9.679688 3.921875 -10.125 5.328125 -10.125 C 5.773438 -10.125 6.222656 -10.070312 6.671875 -9.96875 C 7.117188 -9.875 7.519531 -9.6875 7.875 -9.40625 C 8.226562 -9.132812 8.515625 -8.742188 8.734375 -8.234375 C 8.960938 -7.734375 9.078125 -7.066406 9.078125 -6.234375 C 9.078125 -5.796875 9.039062 -5.3125 8.96875 -4.78125 L 2.609375 -4.78125 C 2.609375 -4.207031 2.664062 -3.695312 2.78125 -3.25 C 2.90625 -2.800781 3.09375 -2.421875 3.34375 -2.109375 C 3.59375 -1.796875 3.914062 -1.554688 4.3125 -1.390625 C 4.71875 -1.222656 5.210938 -1.140625 5.796875 -1.140625 C 6.242188 -1.140625 6.691406 -1.21875 7.140625 -1.375 C 7.585938 -1.539062 7.925781 -1.726562 8.15625 -1.9375 Z M 5.34375 -8.75 C 4.5625 -8.75 3.9375 -8.539062 3.46875 -8.125 C 3 -7.71875 2.71875 -7.019531 2.625 -6.03125 L 7.53125 -6.03125 C 7.53125 -7.03125 7.335938 -7.734375 6.953125 -8.140625 C 6.578125 -8.546875 6.039062 -8.75 5.34375 -8.75 Z M 5.34375 -8.75 "/></g></g></g><g fill="#000000" fill-opacity="1"><g transform="translate(548.208409, 222.688747)"><g><path d="M 9.09375 0.453125 C 9.09375 1.734375 8.753906 2.675781 8.078125 3.28125 C 7.398438 3.882812 6.394531 4.1875 5.0625 4.1875 C 4.269531 4.1875 3.632812 4.132812 3.15625 4.03125 C 2.675781 3.9375 2.265625 3.8125 1.921875 3.65625 L 2.328125 2.3125 C 2.640625 2.4375 2.976562 2.550781 3.34375 2.65625 C 3.707031 2.757812 4.1875 2.8125 4.78125 2.8125 C 5.34375 2.8125 5.796875 2.757812 6.140625 2.65625 C 6.492188 2.5625 6.773438 2.394531 6.984375 2.15625 C 7.191406 1.925781 7.332031 1.628906 7.40625 1.265625 C 7.488281 0.910156 7.53125 0.484375 7.53125 -0.015625 L 7.53125 -0.96875 L 7.453125 -0.96875 C 7.191406 -0.582031 6.851562 -0.285156 6.4375 -0.078125 C 6.03125 0.117188 5.5 0.21875 4.84375 0.21875 C 3.507812 0.21875 2.53125 -0.195312 1.90625 -1.03125 C 1.28125 -1.863281 0.96875 -3.15625 0.96875 -4.90625 C 0.96875 -6.59375 1.367188 -7.875 2.171875 -8.75 C 2.972656 -9.625 4.160156 -10.0625 5.734375 -10.0625 C 6.484375 -10.0625 7.125 -10.003906 7.65625 -9.890625 C 8.195312 -9.773438 8.675781 -9.632812 9.09375 -9.46875 Z M 5.125 -1.171875 C 5.789062 -1.171875 6.316406 -1.335938 6.703125 -1.671875 C 7.085938 -2.003906 7.359375 -2.53125 7.515625 -3.25 L 7.515625 -8.3125 C 6.984375 -8.5625 6.3125 -8.6875 5.5 -8.6875 C 4.601562 -8.6875 3.894531 -8.378906 3.375 -7.765625 C 2.863281 -7.160156 2.609375 -6.210938 2.609375 -4.921875 C 2.609375 -4.367188 2.65625 -3.859375 2.75 -3.390625 C 2.84375 -2.929688 2.988281 -2.535156 3.1875 -2.203125 C 3.382812 -1.878906 3.640625 -1.625 3.953125 -1.4375 C 4.273438 -1.257812 4.664062 -1.171875 5.125 -1.171875 Z M 5.125 -1.171875 "/></g></g></g><g fill="#000000" fill-opacity="1"><g transform="translate(558.832203, 222.688747)"><g><path d="M 2.953125 -9.890625 L 2.953125 -4.25 C 2.953125 -3.738281 2.976562 -3.285156 3.03125 -2.890625 C 3.09375 -2.503906 3.195312 -2.179688 3.34375 -1.921875 C 3.488281 -1.671875 3.6875 -1.476562 3.9375 -1.34375 C 4.1875 -1.207031 4.503906 -1.140625 4.890625 -1.140625 C 5.242188 -1.140625 5.554688 -1.195312 5.828125 -1.3125 C 6.109375 -1.425781 6.359375 -1.582031 6.578125 -1.78125 C 6.796875 -1.976562 6.984375 -2.203125 7.140625 -2.453125 C 7.304688 -2.710938 7.445312 -2.988281 7.5625 -3.28125 L 7.5625 -9.890625 L 9.140625 -9.890625 L 9.140625 -2.8125 C 9.140625 -2.332031 9.15625 -1.835938 9.1875 -1.328125 C 9.21875 -0.828125 9.273438 -0.382812 9.359375 0 L 8.265625 0 L 7.875 -1.5625 L 7.78125 -1.5625 C 7.46875 -1.050781 7.054688 -0.625 6.546875 -0.28125 C 6.035156 0.0625 5.382812 0.234375 4.59375 0.234375 C 4.0625 0.234375 3.59375 0.171875 3.1875 0.046875 C 2.789062 -0.078125 2.457031 -0.296875 2.1875 -0.609375 C 1.914062 -0.929688 1.707031 -1.359375 1.5625 -1.890625 C 1.425781 -2.421875 1.359375 -3.097656 1.359375 -3.921875 L 1.359375 -9.890625 Z M 2.953125 -9.890625 "/></g></g></g><g fill="#000000" fill-opacity="1"><g transform="translate(569.495585, 222.688747)"><g><path d="M 6.1875 -8.375 C 5.789062 -8.5 5.414062 -8.5625 5.0625 -8.5625 C 4.5 -8.5625 4.050781 -8.40625 3.71875 -8.09375 C 3.382812 -7.789062 3.179688 -7.398438 3.109375 -6.921875 L 3.109375 0 L 1.515625 0 L 1.515625 -9.890625 L 2.625 -9.890625 L 2.921875 -8.6875 L 3 -8.6875 C 3.25 -9.132812 3.550781 -9.476562 3.90625 -9.71875 C 4.257812 -9.96875 4.703125 -10.09375 5.234375 -10.09375 C 5.617188 -10.09375 6.050781 -10.023438 6.53125 -9.890625 Z M 6.1875 -8.375 "/></g></g></g><g fill="#000000" fill-opacity="1"><g transform="translate(576.222006, 222.688747)"><g><path d="M 1.359375 -9.15625 C 1.859375 -9.457031 2.441406 -9.679688 3.109375 -9.828125 C 3.773438 -9.972656 4.472656 -10.046875 5.203125 -10.046875 C 5.890625 -10.046875 6.441406 -9.953125 6.859375 -9.765625 C 7.273438 -9.585938 7.585938 -9.347656 7.796875 -9.046875 C 8.015625 -8.753906 8.160156 -8.425781 8.234375 -8.0625 C 8.304688 -7.707031 8.34375 -7.351562 8.34375 -7 C 8.34375 -6.207031 8.320312 -5.4375 8.28125 -4.6875 C 8.25 -3.9375 8.234375 -3.222656 8.234375 -2.546875 C 8.234375 -2.054688 8.25 -1.59375 8.28125 -1.15625 C 8.320312 -0.726562 8.394531 -0.328125 8.5 0.046875 L 7.34375 0.046875 L 6.921875 -1.34375 L 6.828125 -1.34375 C 6.703125 -1.15625 6.550781 -0.972656 6.375 -0.796875 C 6.195312 -0.617188 5.984375 -0.460938 5.734375 -0.328125 C 5.484375 -0.191406 5.191406 -0.078125 4.859375 0.015625 C 4.535156 0.109375 4.160156 0.15625 3.734375 0.15625 C 3.316406 0.15625 2.925781 0.09375 2.5625 -0.03125 C 2.195312 -0.164062 1.878906 -0.351562 1.609375 -0.59375 C 1.347656 -0.84375 1.140625 -1.140625 0.984375 -1.484375 C 0.835938 -1.828125 0.765625 -2.21875 0.765625 -2.65625 C 0.765625 -3.226562 0.882812 -3.707031 1.125 -4.09375 C 1.363281 -4.488281 1.695312 -4.800781 2.125 -5.03125 C 2.550781 -5.257812 3.0625 -5.421875 3.65625 -5.515625 C 4.257812 -5.617188 4.925781 -5.671875 5.65625 -5.671875 C 5.84375 -5.671875 6.023438 -5.671875 6.203125 -5.671875 C 6.378906 -5.671875 6.5625 -5.660156 6.75 -5.640625 C 6.789062 -6.035156 6.8125 -6.390625 6.8125 -6.703125 C 6.8125 -7.429688 6.664062 -7.941406 6.375 -8.234375 C 6.082031 -8.523438 5.550781 -8.671875 4.78125 -8.671875 C 4.5625 -8.671875 4.320312 -8.648438 4.0625 -8.609375 C 3.800781 -8.578125 3.535156 -8.53125 3.265625 -8.46875 C 3.003906 -8.414062 2.75 -8.34375 2.5 -8.25 C 2.257812 -8.164062 2.046875 -8.070312 1.859375 -7.96875 Z M 4.171875 -1.21875 C 4.546875 -1.21875 4.875 -1.265625 5.15625 -1.359375 C 5.445312 -1.460938 5.695312 -1.59375 5.90625 -1.75 C 6.125 -1.90625 6.300781 -2.070312 6.4375 -2.25 C 6.570312 -2.4375 6.675781 -2.617188 6.75 -2.796875 L 6.75 -4.4375 C 6.5625 -4.445312 6.367188 -4.453125 6.171875 -4.453125 C 5.984375 -4.460938 5.800781 -4.46875 5.625 -4.46875 C 5.207031 -4.46875 4.804688 -4.441406 4.421875 -4.390625 C 4.035156 -4.347656 3.691406 -4.265625 3.390625 -4.140625 C 3.097656 -4.015625 2.859375 -3.84375 2.671875 -3.625 C 2.492188 -3.40625 2.40625 -3.132812 2.40625 -2.8125 C 2.40625 -2.34375 2.570312 -1.957031 2.90625 -1.65625 C 3.238281 -1.363281 3.660156 -1.21875 4.171875 -1.21875 Z M 4.171875 -1.21875 "/></g></g></g><g fill="#000000" fill-opacity="1"><g transform="translate(586.034678, 222.688747)"><g><path d="M 7.875 0 L 7.875 -5.640625 C 7.875 -6.671875 7.722656 -7.445312 7.421875 -7.96875 C 7.128906 -8.488281 6.585938 -8.75 5.796875 -8.75 C 5.097656 -8.75 4.519531 -8.554688 4.0625 -8.171875 C 3.601562 -7.796875 3.285156 -7.328125 3.109375 -6.765625 L 3.109375 0 L 1.515625 0 L 1.515625 -9.890625 L 2.625 -9.890625 L 2.921875 -8.6875 L 3 -8.6875 C 3.320312 -9.101562 3.75 -9.445312 4.28125 -9.71875 C 4.8125 -9.988281 5.445312 -10.125 6.1875 -10.125 C 6.726562 -10.125 7.203125 -10.0625 7.609375 -9.9375 C 8.023438 -9.8125 8.367188 -9.585938 8.640625 -9.265625 C 8.910156 -8.953125 9.113281 -8.53125 9.25 -8 C 9.382812 -7.46875 9.453125 -6.789062 9.453125 -5.96875 L 9.453125 0 Z M 7.875 0 "/></g></g></g><g fill="#000000" fill-opacity="1"><g transform="translate(596.856313, 222.688747)"><g><path d="M 9.125 -3.40625 C 9.125 -2.726562 9.128906 -2.113281 9.140625 -1.5625 C 9.148438 -1.019531 9.207031 -0.484375 9.3125 0.046875 L 8.25 0.046875 L 7.859375 -1.359375 L 7.78125 -1.359375 C 7.507812 -0.898438 7.125 -0.519531 6.625 -0.21875 C 6.125 0.0820312 5.535156 0.234375 4.859375 0.234375 C 3.546875 0.234375 2.566406 -0.175781 1.921875 -1 C 1.285156 -1.832031 0.96875 -3.132812 0.96875 -4.90625 C 0.96875 -6.59375 1.363281 -7.875 2.15625 -8.75 C 2.957031 -9.625 4.054688 -10.0625 5.453125 -10.0625 C 5.941406 -10.0625 6.328125 -10.035156 6.609375 -9.984375 C 6.898438 -9.929688 7.207031 -9.847656 7.53125 -9.734375 L 7.53125 -13.84375 L 9.125 -13.84375 Z M 5.125 -1.140625 C 5.789062 -1.140625 6.320312 -1.316406 6.71875 -1.671875 C 7.113281 -2.023438 7.382812 -2.554688 7.53125 -3.265625 L 7.53125 -8.171875 C 7.300781 -8.359375 7.03125 -8.488281 6.71875 -8.5625 C 6.414062 -8.644531 6.015625 -8.6875 5.515625 -8.6875 C 4.609375 -8.6875 3.894531 -8.382812 3.375 -7.78125 C 2.863281 -7.1875 2.609375 -6.226562 2.609375 -4.90625 C 2.609375 -4.363281 2.648438 -3.859375 2.734375 -3.390625 C 2.828125 -2.929688 2.972656 -2.535156 3.171875 -2.203125 C 3.367188 -1.878906 3.628906 -1.617188 3.953125 -1.421875 C 4.273438 -1.234375 4.664062 -1.140625 5.125 -1.140625 Z M 5.125 -1.140625 "/></g></g></g><g fill="#000000" fill-opacity="1"><g transform="translate(607.499894, 222.688747)"><g><path d="M 0.96875 -4.953125 C 0.96875 -6.617188 1.335938 -7.894531 2.078125 -8.78125 C 2.828125 -9.675781 3.898438 -10.125 5.296875 -10.125 C 6.035156 -10.125 6.675781 -10 7.21875 -9.75 C 7.769531 -9.507812 8.222656 -9.160156 8.578125 -8.703125 C 8.941406 -8.253906 9.207031 -7.707031 9.375 -7.0625 C 9.550781 -6.425781 9.640625 -5.722656 9.640625 -4.953125 C 9.640625 -3.273438 9.265625 -1.988281 8.515625 -1.09375 C 7.765625 -0.207031 6.691406 0.234375 5.296875 0.234375 C 4.554688 0.234375 3.910156 0.113281 3.359375 -0.125 C 2.816406 -0.375 2.367188 -0.722656 2.015625 -1.171875 C 1.660156 -1.628906 1.394531 -2.175781 1.21875 -2.8125 C 1.050781 -3.457031 0.96875 -4.171875 0.96875 -4.953125 Z M 2.609375 -4.953125 C 2.609375 -4.441406 2.65625 -3.957031 2.75 -3.5 C 2.851562 -3.039062 3.007812 -2.640625 3.21875 -2.296875 C 3.4375 -1.953125 3.710938 -1.671875 4.046875 -1.453125 C 4.390625 -1.242188 4.804688 -1.140625 5.296875 -1.140625 C 7.085938 -1.128906 7.984375 -2.398438 7.984375 -4.953125 C 7.984375 -5.460938 7.929688 -5.945312 7.828125 -6.40625 C 7.734375 -6.863281 7.582031 -7.265625 7.375 -7.609375 C 7.164062 -7.953125 6.890625 -8.226562 6.546875 -8.4375 C 6.203125 -8.644531 5.785156 -8.75 5.296875 -8.75 C 3.503906 -8.757812 2.609375 -7.492188 2.609375 -4.953125 Z M 2.609375 -4.953125 "/></g></g></g><g fill="#000000" fill-opacity="1"><g transform="translate(618.103901, 222.688747)"><g/></g></g><g fill="#000000" fill-opacity="1"><g transform="translate(623.386104, 222.688747)"><g><path d="M 0.21875 -9.890625 L 1.765625 -9.890625 L 1.765625 -11.84375 L 3.34375 -12.296875 L 3.34375 -9.890625 L 6.03125 -9.890625 L 6.03125 -8.5 L 3.34375 -8.5 L 3.34375 -3.03125 C 3.34375 -2.34375 3.425781 -1.851562 3.59375 -1.5625 C 3.769531 -1.28125 4.0625 -1.140625 4.46875 -1.140625 C 4.8125 -1.140625 5.101562 -1.175781 5.34375 -1.25 C 5.582031 -1.320312 5.84375 -1.421875 6.125 -1.546875 L 6.484375 -0.34375 C 6.128906 -0.164062 5.738281 -0.0234375 5.3125 0.078125 C 4.894531 0.179688 4.441406 0.234375 3.953125 0.234375 C 3.148438 0.234375 2.582031 0.0078125 2.25 -0.4375 C 1.925781 -0.894531 1.765625 -1.660156 1.765625 -2.734375 L 1.765625 -8.5 L 0.21875 -8.5 Z M 0.21875 -9.890625 "/></g></g></g><g fill="#000000" fill-opacity="1"><g transform="translate(630.092766, 222.688747)"><g><path d="M 2.953125 -9.890625 L 2.953125 -4.25 C 2.953125 -3.738281 2.976562 -3.285156 3.03125 -2.890625 C 3.09375 -2.503906 3.195312 -2.179688 3.34375 -1.921875 C 3.488281 -1.671875 3.6875 -1.476562 3.9375 -1.34375 C 4.1875 -1.207031 4.503906 -1.140625 4.890625 -1.140625 C 5.242188 -1.140625 5.554688 -1.195312 5.828125 -1.3125 C 6.109375 -1.425781 6.359375 -1.582031 6.578125 -1.78125 C 6.796875 -1.976562 6.984375 -2.203125 7.140625 -2.453125 C 7.304688 -2.710938 7.445312 -2.988281 7.5625 -3.28125 L 7.5625 -9.890625 L 9.140625 -9.890625 L 9.140625 -2.8125 C 9.140625 -2.332031 9.15625 -1.835938 9.1875 -1.328125 C 9.21875 -0.828125 9.273438 -0.382812 9.359375 0 L 8.265625 0 L 7.875 -1.5625 L 7.78125 -1.5625 C 7.46875 -1.050781 7.054688 -0.625 6.546875 -0.28125 C 6.035156 0.0625 5.382812 0.234375 4.59375 0.234375 C 4.0625 0.234375 3.59375 0.171875 3.1875 0.046875 C 2.789062 -0.078125 2.457031 -0.296875 2.1875 -0.609375 C 1.914062 -0.929688 1.707031 -1.359375 1.5625 -1.890625 C 1.425781 -2.421875 1.359375 -3.097656 1.359375 -3.921875 L 1.359375 -9.890625 Z M 2.953125 -9.890625 "/></g></g></g><g fill="#000000" fill-opacity="1"><g transform="translate(640.756134, 222.688747)"><g/></g></g><g fill="#000000" fill-opacity="1"><g transform="translate(646.038365, 222.688747)"><g><path d="M 0.4375 -9.890625 L 1.984375 -9.890625 L 1.984375 -10.4375 C 1.984375 -11.050781 2.03125 -11.582031 2.125 -12.03125 C 2.226562 -12.476562 2.390625 -12.84375 2.609375 -13.125 C 2.835938 -13.40625 3.128906 -13.613281 3.484375 -13.75 C 3.835938 -13.894531 4.28125 -13.96875 4.8125 -13.96875 C 5.226562 -13.96875 5.597656 -13.941406 5.921875 -13.890625 C 6.242188 -13.835938 6.582031 -13.738281 6.9375 -13.59375 L 6.59375 -12.265625 C 6.28125 -12.398438 5.988281 -12.484375 5.71875 -12.515625 C 5.457031 -12.554688 5.207031 -12.578125 4.96875 -12.578125 C 4.625 -12.578125 4.351562 -12.523438 4.15625 -12.421875 C 3.96875 -12.316406 3.832031 -12.160156 3.75 -11.953125 C 3.664062 -11.753906 3.613281 -11.503906 3.59375 -11.203125 C 3.570312 -10.910156 3.5625 -10.566406 3.5625 -10.171875 L 3.5625 -9.890625 L 6.1875 -9.890625 L 6.1875 -8.5 L 3.5625 -8.5 L 3.5625 0 L 1.984375 0 L 1.984375 -8.5 L 0.4375 -8.5 Z M 0.4375 -9.890625 "/></g></g></g><g fill="#000000" fill-opacity="1"><g transform="translate(652.349346, 222.688747)"><g><path d="M 2.953125 -9.890625 L 2.953125 -4.25 C 2.953125 -3.738281 2.976562 -3.285156 3.03125 -2.890625 C 3.09375 -2.503906 3.195312 -2.179688 3.34375 -1.921875 C 3.488281 -1.671875 3.6875 -1.476562 3.9375 -1.34375 C 4.1875 -1.207031 4.503906 -1.140625 4.890625 -1.140625 C 5.242188 -1.140625 5.554688 -1.195312 5.828125 -1.3125 C 6.109375 -1.425781 6.359375 -1.582031 6.578125 -1.78125 C 6.796875 -1.976562 6.984375 -2.203125 7.140625 -2.453125 C 7.304688 -2.710938 7.445312 -2.988281 7.5625 -3.28125 L 7.5625 -9.890625 L 9.140625 -9.890625 L 9.140625 -2.8125 C 9.140625 -2.332031 9.15625 -1.835938 9.1875 -1.328125 C 9.21875 -0.828125 9.273438 -0.382812 9.359375 0 L 8.265625 0 L 7.875 -1.5625 L 7.78125 -1.5625 C 7.46875 -1.050781 7.054688 -0.625 6.546875 -0.28125 C 6.035156 0.0625 5.382812 0.234375 4.59375 0.234375 C 4.0625 0.234375 3.59375 0.171875 3.1875 0.046875 C 2.789062 -0.078125 2.457031 -0.296875 2.1875 -0.609375 C 1.914062 -0.929688 1.707031 -1.359375 1.5625 -1.890625 C 1.425781 -2.421875 1.359375 -3.097656 1.359375 -3.921875 L 1.359375 -9.890625 Z M 2.953125 -9.890625 "/></g></g></g><g fill="#000000" fill-opacity="1"><g transform="translate(663.012714, 222.688747)"><g><path d="M 0.21875 -9.890625 L 1.765625 -9.890625 L 1.765625 -11.84375 L 3.34375 -12.296875 L 3.34375 -9.890625 L 6.03125 -9.890625 L 6.03125 -8.5 L 3.34375 -8.5 L 3.34375 -3.03125 C 3.34375 -2.34375 3.425781 -1.851562 3.59375 -1.5625 C 3.769531 -1.28125 4.0625 -1.140625 4.46875 -1.140625 C 4.8125 -1.140625 5.101562 -1.175781 5.34375 -1.25 C 5.582031 -1.320312 5.84375 -1.421875 6.125 -1.546875 L 6.484375 -0.34375 C 6.128906 -0.164062 5.738281 -0.0234375 5.3125 0.078125 C 4.894531 0.179688 4.441406 0.234375 3.953125 0.234375 C 3.148438 0.234375 2.582031 0.0078125 2.25 -0.4375 C 1.925781 -0.894531 1.765625 -1.660156 1.765625 -2.734375 L 1.765625 -8.5 L 0.21875 -8.5 Z M 0.21875 -9.890625 "/></g></g></g><g fill="#000000" fill-opacity="1"><g transform="translate(669.719376, 222.688747)"><g><path d="M 2.953125 -9.890625 L 2.953125 -4.25 C 2.953125 -3.738281 2.976562 -3.285156 3.03125 -2.890625 C 3.09375 -2.503906 3.195312 -2.179688 3.34375 -1.921875 C 3.488281 -1.671875 3.6875 -1.476562 3.9375 -1.34375 C 4.1875 -1.207031 4.503906 -1.140625 4.890625 -1.140625 C 5.242188 -1.140625 5.554688 -1.195312 5.828125 -1.3125 C 6.109375 -1.425781 6.359375 -1.582031 6.578125 -1.78125 C 6.796875 -1.976562 6.984375 -2.203125 7.140625 -2.453125 C 7.304688 -2.710938 7.445312 -2.988281 7.5625 -3.28125 L 7.5625 -9.890625 L 9.140625 -9.890625 L 9.140625 -2.8125 C 9.140625 -2.332031 9.15625 -1.835938 9.1875 -1.328125 C 9.21875 -0.828125 9.273438 -0.382812 9.359375 0 L 8.265625 0 L 7.875 -1.5625 L 7.78125 -1.5625 C 7.46875 -1.050781 7.054688 -0.625 6.546875 -0.28125 C 6.035156 0.0625 5.382812 0.234375 4.59375 0.234375 C 4.0625 0.234375 3.59375 0.171875 3.1875 0.046875 C 2.789062 -0.078125 2.457031 -0.296875 2.1875 -0.609375 C 1.914062 -0.929688 1.707031 -1.359375 1.5625 -1.890625 C 1.425781 -2.421875 1.359375 -3.097656 1.359375 -3.921875 L 1.359375 -9.890625 Z M 2.953125 -9.890625 "/></g></g></g><g fill="#000000" fill-opacity="1"><g transform="translate(680.382744, 222.688747)"><g><path d="M 6.1875 -8.375 C 5.789062 -8.5 5.414062 -8.5625 5.0625 -8.5625 C 4.5 -8.5625 4.050781 -8.40625 3.71875 -8.09375 C 3.382812 -7.789062 3.179688 -7.398438 3.109375 -6.921875 L 3.109375 0 L 1.515625 0 L 1.515625 -9.890625 L 2.625 -9.890625 L 2.921875 -8.6875 L 3 -8.6875 C 3.25 -9.132812 3.550781 -9.476562 3.90625 -9.71875 C 4.257812 -9.96875 4.703125 -10.09375 5.234375 -10.09375 C 5.617188 -10.09375 6.050781 -10.023438 6.53125 -9.890625 Z M 6.1875 -8.375 "/></g></g></g><g fill="#000000" fill-opacity="1"><g transform="translate(687.109166, 222.688747)"><g><path d="M 0.96875 -4.953125 C 0.96875 -6.617188 1.335938 -7.894531 2.078125 -8.78125 C 2.828125 -9.675781 3.898438 -10.125 5.296875 -10.125 C 6.035156 -10.125 6.675781 -10 7.21875 -9.75 C 7.769531 -9.507812 8.222656 -9.160156 8.578125 -8.703125 C 8.941406 -8.253906 9.207031 -7.707031 9.375 -7.0625 C 9.550781 -6.425781 9.640625 -5.722656 9.640625 -4.953125 C 9.640625 -3.273438 9.265625 -1.988281 8.515625 -1.09375 C 7.765625 -0.207031 6.691406 0.234375 5.296875 0.234375 C 4.554688 0.234375 3.910156 0.113281 3.359375 -0.125 C 2.816406 -0.375 2.367188 -0.722656 2.015625 -1.171875 C 1.660156 -1.628906 1.394531 -2.175781 1.21875 -2.8125 C 1.050781 -3.457031 0.96875 -4.171875 0.96875 -4.953125 Z M 2.609375 -4.953125 C 2.609375 -4.441406 2.65625 -3.957031 2.75 -3.5 C 2.851562 -3.039062 3.007812 -2.640625 3.21875 -2.296875 C 3.4375 -1.953125 3.710938 -1.671875 4.046875 -1.453125 C 4.390625 -1.242188 4.804688 -1.140625 5.296875 -1.140625 C 7.085938 -1.128906 7.984375 -2.398438 7.984375 -4.953125 C 7.984375 -5.460938 7.929688 -5.945312 7.828125 -6.40625 C 7.734375 -6.863281 7.582031 -7.265625 7.375 -7.609375 C 7.164062 -7.953125 6.890625 -8.226562 6.546875 -8.4375 C 6.203125 -8.644531 5.785156 -8.75 5.296875 -8.75 C 3.503906 -8.757812 2.609375 -7.492188 2.609375 -4.953125 Z M 2.609375 -4.953125 "/></g></g></g></svg>